<svg xmlns="http://www.w3.org/2000/svg" width="60" height="54.214" viewBox="0 0 60 54.214">
  <path id="logo_SVG" data-name="logo SVG" d="M9.682-570.6a7.77,7.77,0,0,0-4.97,2.347,7.319,7.319,0,0,0-1.917,5.094c-.038.935-.086,1.269-.172,1.269-.067,0-.525-.076-1.011-.181C.067-562.373,0-562.383,0-562.249a14.51,14.51,0,0,0,1.889,1.45,20.646,20.646,0,0,1,1.688,1.25,19.7,19.7,0,0,0-2.4-.773,6.473,6.473,0,0,0,.773.954l.82.906v18.01c0,19.6-.029,18.572.544,19.908.944,2.223,3.062,3.634,6.086,4.054.42.057,8.356.086,21.272.076,23.218-.029,21.052.048,22.8-.773a5.886,5.886,0,0,0,2.385-1.908,7.148,7.148,0,0,0,1.288-4.617c0-1.021.029-1.355.124-1.355.057,0,.649.1,1.307.238s1.25.238,1.316.238c.353,0-.076-.362-1.755-1.517-1.021-.7-1.841-1.288-1.822-1.307a8.982,8.982,0,0,1,1.2.448,7.347,7.347,0,0,0,1.221.429c.029-.029.019-.124-.019-.219a.641.641,0,0,1-.067-.248c.01-.038-.019-.057-.067-.048a3.2,3.2,0,0,1-.763-.782l-.677-.8-.019-17.99-.029-17.981-.219-.706a6.832,6.832,0,0,0-5.065-5.056l-.916-.248-20.461-.01C19.173-570.634,9.844-570.615,9.682-570.6Zm25.87,10.4c-.029.153-.868,3.138-1.87,6.658s-2.347,8.318-3.014,10.665c-1.259,4.493-1.545,5.361-2.289,6.839a7.778,7.778,0,0,1-4.264,4.34c-3.52,1.66-7.936,1.555-10.541-.258a7.122,7.122,0,0,1-3.024-4.1,11.278,11.278,0,0,1-.391-3.444,6.539,6.539,0,0,1,.334-1.975c.1,0,4.493,1.507,4.55,1.555a9.4,9.4,0,0,1,.057,1.126c.029,1.574.305,2.013,1.641,2.633a3.568,3.568,0,0,0,1.746.3,5.684,5.684,0,0,0,2.948-.467,5.811,5.811,0,0,0,2.766-2.909,21.021,21.021,0,0,0,.83-2.528c.286-1.021,1.488-5.418,2.68-9.768s2.223-8.146,2.308-8.423l.134-.5h5.456Zm5.275,4.932c0,.21-1.059,4.464-3.529,14.156-1.269,5-2.28,9.119-2.251,9.148s2.919.057,6.4.038c6.1-.029,6.343-.019,6.343.153-.01.1-.277,1.183-.6,2.413l-.6,2.242-9.224.029c-7.364.019-9.215,0-9.176-.1.019-.067,1.736-6.391,3.816-14.051s3.787-13.984,3.816-14.051A22.525,22.525,0,0,1,40.827-555.266Z" transform="translate(0 570.627)" fill="#fff"/>
</svg>
