<svg xmlns="http://www.w3.org/2000/svg" xmlns:xlink="http://www.w3.org/1999/xlink" width="2014.097" height="921" viewBox="0 0 2014.097 921">
  <defs>
    <linearGradient id="linear-gradient" y1="0.5" x2="1" y2="0.5" gradientUnits="objectBoundingBox">
      <stop offset="0" stop-color="#e39a65"/>
      <stop offset="1" stop-color="#e95f8d"/>
    </linearGradient>
  </defs>
  <g id="Background-image" transform="translate(85 69)">
    <g id="Square_5" data-name="Square 5" transform="translate(1779.69 -69)">
      <path id="square_5-2" data-name="square 5" d="M74.706,93a28.572,28.572,0,0,1-15.2-4.407L3.854,53.739a8.725,8.725,0,0,1,0-14.478L59.5,4.407a28.435,28.435,0,0,1,30.408,0l55.649,34.856a8.728,8.728,0,0,1,0,14.478L89.91,88.594A28.572,28.572,0,0,1,74.706,93ZM61.311,85.192a25.058,25.058,0,0,0,26.79,0l55.644-34.852a4.624,4.624,0,0,0,0-7.674L88.1,7.809a25.05,25.05,0,0,0-26.79,0L5.663,42.663a4.627,4.627,0,0,0,0,7.674Z" transform="translate(0 -0.001)" fill="url(#linear-gradient)"/>
    </g>
    <g id="Square_4" data-name="Square 4" transform="translate(1772.69 352.5)">
      <path id="square_4-2" data-name="square 4" d="M63.058,78.5a24.117,24.117,0,0,1-12.834-3.72L3.253,45.36a7.365,7.365,0,0,1,0-12.221L50.222,3.72a24,24,0,0,1,25.667,0l46.972,29.422a7.368,7.368,0,0,1,0,12.221L75.892,74.781A24.117,24.117,0,0,1,63.058,78.5ZM51.752,71.909a21.151,21.151,0,0,0,22.613,0l46.968-29.418a3.9,3.9,0,0,0,0-6.478L74.363,6.592a21.144,21.144,0,0,0-22.613,0L4.78,36.011a3.906,3.906,0,0,0,0,6.478Z" transform="translate(0 -0.001)" fill="url(#linear-gradient)"/>
    </g>
    <g id="Square_2" data-name="Square 2" transform="translate(-26 209.07)">
      <path id="square_2-2" data-name="square 2" d="M87.5,108.931a33.466,33.466,0,0,1-17.808-5.162L4.514,62.943a10.22,10.22,0,0,1,0-16.958L69.691,5.162a33.305,33.305,0,0,1,35.617,0l65.181,40.827a10.223,10.223,0,0,1,0,16.958l-65.178,40.822A33.466,33.466,0,0,1,87.5,108.931ZM71.813,99.784a29.35,29.35,0,0,0,31.379,0l65.175-40.822a5.416,5.416,0,0,0,0-8.989L103.19,9.146a29.341,29.341,0,0,0-31.379,0L6.634,49.97a5.42,5.42,0,0,0,0,8.989Z" transform="translate(0 -0.001)" fill="url(#linear-gradient)"/>
    </g>
    <g id="Square_1" data-name="Square 1" transform="translate(-85 759)">
      <path id="square_1-2" data-name="square 1" d="M74.706,93a28.572,28.572,0,0,1-15.2-4.407L3.854,53.739a8.725,8.725,0,0,1,0-14.478L59.5,4.407a28.435,28.435,0,0,1,30.408,0l55.649,34.856a8.728,8.728,0,0,1,0,14.478L89.91,88.594A28.572,28.572,0,0,1,74.706,93ZM61.311,85.192a25.058,25.058,0,0,0,26.79,0l55.644-34.852a4.624,4.624,0,0,0,0-7.674L88.1,7.809a25.05,25.05,0,0,0-26.79,0L5.663,42.663a4.627,4.627,0,0,0,0,7.674Z" transform="translate(0 -0.001)" fill="url(#linear-gradient)"/>
    </g>
  </g>
</svg>
