<svg xmlns="http://www.w3.org/2000/svg" xmlns:xlink="http://www.w3.org/1999/xlink" width="60" height="34" viewBox="0 0 60 34">
  <defs>
    <clipPath id="clip-path">
      <rect id="Rectangle_12" data-name="Rectangle 12" width="60" height="34" fill="#fff" stroke="#707070" stroke-width="1"/>
    </clipPath>
  </defs>
  <g id="front-end_SVG" data-name="front-end SVG" clip-path="url(#clip-path)">
    <g id="Layer_1" transform="translate(2.889 0.428)">
      <g id="Group_43" data-name="Group 43">
        <path id="Path_492" data-name="Path 492" d="M5.164,10.681V35.515c-1.214,1.8-3.036,0-3.036,0V10.681S3.8,12.327,5.164,10.681Z" transform="translate(-0.921 -3.201)" fill="#fff" stroke="#3a238b" stroke-width="1.214"/>
        <path id="Path_493" data-name="Path 493" d="M1.726,8.041a4.847,4.847,0,0,1-.517-.727C.4,5.947-.627,2.918,4.155.561c0,0-2.884.9-.152,2.543A3.341,3.341,0,0,1,5.217,7.593l-.455.449A1.961,1.961,0,0,1,1.726,8.041Z" transform="translate(-0.518 -0.561)" fill="#fff" stroke="#3a238b" stroke-width="1.214"/>
        <path id="Path_494" data-name="Path 494" d="M39.4,29.494c24.368,9.806,16.091-6.3,16.091-6.3C33.433-15.126,13.643,18.4,11.255,22.744c-.159.289-.241.449-.241.449S1.3,41.017,26.043,29.494C26.043,29.494,30.9,26.074,39.4,29.494Z" transform="translate(-2.672 -1.726)" fill="#fff" stroke="#3a238b" stroke-width="1.214"/>
        <path id="Path_495" data-name="Path 495" d="M36.613,32.416a5.582,5.582,0,0,1,5.335,0C44.671,33.975,34.109,34.162,36.613,32.416Z" transform="translate(-9.445 -8.691)" fill="#fff" stroke="#3a238b" stroke-width="1.214"/>
        <path id="Path_496" data-name="Path 496" d="M21.255,26.732a2.583,2.583,0,1,1-2.581-2.693A2.638,2.638,0,0,1,21.255,26.732Z" transform="translate(-4.412 -6.686)" fill="#fff" stroke="#3a238b" stroke-width="1.214"/>
        <path id="Path_497" data-name="Path 497" d="M26.72,19.041a2.583,2.583,0,1,1-2.581-2.693A2.638,2.638,0,0,1,26.72,19.041Z" transform="translate(-5.778 -4.68)" fill="#fff" stroke="#3a238b" stroke-width="1.214"/>
        <path id="Path_498" data-name="Path 498" d="M34.209,13.374a2.583,2.583,0,1,1-2.581-2.693A2.638,2.638,0,0,1,34.209,13.374Z" transform="translate(-7.65 -3.201)" fill="#fff" stroke="#3a238b" stroke-width="1.214"/>
        <path id="Path_499" data-name="Path 499" d="M42.507,10.136a2.583,2.583,0,1,1-5.161,0,2.583,2.583,0,1,1,5.161,0Z" transform="translate(-9.725 -2.357)" fill="#fff" stroke="#3a238b" stroke-width="1.214"/>
        <path id="Path_500" data-name="Path 500" d="M51.008,12.16a2.583,2.583,0,1,1-2.581-2.693A2.638,2.638,0,0,1,51.008,12.16Z" transform="translate(-11.85 -2.885)" fill="#fff" stroke="#3a238b" stroke-width="1.214"/>
        <path id="Path_501" data-name="Path 501" d="M58.5,17.827a2.583,2.583,0,1,1-2.581-2.693A2.638,2.638,0,0,1,58.5,17.827Z" transform="translate(-13.722 -4.363)" fill="#fff" stroke="#3a238b" stroke-width="1.214"/>
        <path id="Path_502" data-name="Path 502" d="M64.163,25.518a2.583,2.583,0,1,1-2.581-2.693A2.638,2.638,0,0,1,64.163,25.518Z" transform="translate(-15.139 -6.369)" fill="#fff" stroke="#3a238b" stroke-width="1.214"/>
      </g>
    </g>
  </g>
</svg>
