<svg xmlns="http://www.w3.org/2000/svg" xmlns:xlink="http://www.w3.org/1999/xlink" width="650" height="480.232" viewBox="0 0 650 480.232">
  <defs>
    <clipPath id="clip-path">
      <rect id="Rectangle_1" data-name="Rectangle 1" width="650" height="480.232" transform="translate(328 1182.386)" fill="#fff" stroke="#707070" stroke-width="1"/>
    </clipPath>
    <linearGradient id="linear-gradient" y1="0.5" x2="1" y2="0.5" gradientUnits="objectBoundingBox">
      <stop offset="0" stop-color="#e39a65"/>
      <stop offset="1" stop-color="#e95f8d"/>
    </linearGradient>
    <linearGradient id="linear-gradient-2" x1="0" y1="0.5" x2="1" y2="0.5" xlink:href="#linear-gradient"/>
    <radialGradient id="radial-gradient" cx="0.194" cy="-0.023" r="1.115" gradientTransform="translate(-0.04) scale(1.08 1)" gradientUnits="objectBoundingBox">
      <stop offset="0" stop-color="#e39a65"/>
      <stop offset="0.474" stop-color="#a92ffb"/>
      <stop offset="0.595" stop-color="#891cfb"/>
      <stop offset="0.742" stop-color="#6507fa"/>
      <stop offset="0.802" stop-color="#0d0c6f"/>
    </radialGradient>
    <radialGradient id="radial-gradient-2" cx="0.01" cy="0.384" r="1.712" gradientTransform="translate(0.213) scale(0.573 1)" gradientUnits="objectBoundingBox">
      <stop offset="0" stop-color="#e39a65"/>
      <stop offset="0.474" stop-color="#a92ffb"/>
      <stop offset="0.568" stop-color="#891cfb"/>
      <stop offset="0.683" stop-color="#6507fa"/>
      <stop offset="0.738" stop-color="#0d0c6f"/>
    </radialGradient>
    <radialGradient id="radial-gradient-3" cx="0.101" cy="0.074" r="1.524" gradientTransform="translate(0.211) scale(0.577 1)" gradientUnits="objectBoundingBox">
      <stop offset="0" stop-color="#e39a65"/>
      <stop offset="0.474" stop-color="#a92ffb"/>
      <stop offset="0.587" stop-color="#891cfb"/>
      <stop offset="0.726" stop-color="#6507fa"/>
      <stop offset="1" stop-color="#3919bb"/>
    </radialGradient>
    <radialGradient id="radial-gradient-4" cx="-0.114" cy="0.206" r="1.119" gradientTransform="translate(-0.038) scale(1.077 1)" xlink:href="#radial-gradient-3"/>
    <linearGradient id="linear-gradient-5" x1="0.001" y1="0.5" x2="0.999" y2="0.5" gradientUnits="objectBoundingBox">
      <stop offset="0" stop-color="#3919bb"/>
      <stop offset="1" stop-color="#6507fa"/>
    </linearGradient>
    <radialGradient id="radial-gradient-5" cx="-1.08" cy="-0.319" r="2.651" gradientTransform="translate(-0.038) scale(1.077 1)" xlink:href="#radial-gradient-3"/>
    <radialGradient id="radial-gradient-6" cx="-0.082" cy="0.241" r="2.243" gradientTransform="translate(-0.159) scale(1.318 1)" gradientUnits="objectBoundingBox">
      <stop offset="0" stop-color="#e39a65"/>
      <stop offset="0.153" stop-color="#a92ffb"/>
      <stop offset="0.409" stop-color="#3919bb"/>
      <stop offset="0.931" stop-color="#3919bb"/>
    </radialGradient>
    <linearGradient id="linear-gradient-7" y1="0.5" x2="1" y2="0.5" gradientUnits="objectBoundingBox">
      <stop offset="0" stop-color="#e39a65"/>
      <stop offset="0.252" stop-color="#a92ffb"/>
      <stop offset="0.556" stop-color="#3919bb"/>
    </linearGradient>
    <linearGradient id="linear-gradient-8" y1="0.5" x2="1" y2="0.5" gradientUnits="objectBoundingBox">
      <stop offset="0" stop-color="#4f1fec"/>
      <stop offset="1" stop-color="#a92ffb"/>
    </linearGradient>
    <linearGradient id="linear-gradient-10" x1="0.002" y1="0.5" x2="1.258" y2="0.5" gradientUnits="objectBoundingBox">
      <stop offset="0" stop-color="#131060"/>
      <stop offset="0.186" stop-color="#141062"/>
      <stop offset="0.282" stop-color="#19106a"/>
      <stop offset="0.358" stop-color="#221078"/>
      <stop offset="0.424" stop-color="#2e0f8b"/>
      <stop offset="0.482" stop-color="#3e0fa3"/>
      <stop offset="0.536" stop-color="#510ec2"/>
      <stop offset="0.585" stop-color="#680de5"/>
      <stop offset="0.607" stop-color="#740df8"/>
      <stop offset="0.618" stop-color="#7a14f0"/>
      <stop offset="0.683" stop-color="#9b3cc3"/>
      <stop offset="0.748" stop-color="#b75d9d"/>
      <stop offset="0.812" stop-color="#cc7680"/>
      <stop offset="0.876" stop-color="#dc886c"/>
      <stop offset="0.939" stop-color="#e5935f"/>
      <stop offset="1" stop-color="#e8975b"/>
    </linearGradient>
    <radialGradient id="radial-gradient-7" cx="-0.135" cy="0.092" r="3.209" gradientTransform="translate(0.211) scale(0.577 1)" gradientUnits="objectBoundingBox">
      <stop offset="0" stop-color="#e39a65"/>
      <stop offset="0.252" stop-color="#a92ffb"/>
      <stop offset="0.736" stop-color="#3919bb"/>
    </radialGradient>
    <linearGradient id="linear-gradient-11" x1="-0.089" y1="0.5" x2="1.209" y2="0.5" xlink:href="#linear-gradient-10"/>
  </defs>
  <g id="laptop_SVG" data-name="laptop SVG" transform="translate(-328 -1182.386)" clip-path="url(#clip-path)">
    <g id="Ñëîé_1" transform="translate(328 1182.101)">
      <g id="Group_12" data-name="Group 12">
        <path id="Path_2" data-name="Path 2" d="M563.784,373.795a10.293,10.293,0,0,1-5.154-1.38l-17.377-10.032a3.218,3.218,0,0,1,0-5.576l17.377-10.032a10.335,10.335,0,0,1,10.309,0l17.379,10.032a3.218,3.218,0,0,1,0,5.576L568.94,372.414A10.283,10.283,0,0,1,563.784,373.795Zm0-25.643a7.544,7.544,0,0,0-3.779,1.01l-17.378,10.032a.464.464,0,0,0,0,.8l17.379,10.032h0a7.579,7.579,0,0,0,7.555,0L584.94,360a.464.464,0,0,0,0-.8l-17.379-10.032A7.543,7.543,0,0,0,563.784,348.152Z" transform="translate(61.334 39.257)" fill="url(#linear-gradient)"/>
        <path id="Path_3" data-name="Path 3" d="M520.829,324.557a16.727,16.727,0,0,1-8.373-2.239l-29.907-17.268a4.542,4.542,0,0,1,0-7.871l29.906-17.265a16.78,16.78,0,0,1,16.748,0l29.908,17.265a4.547,4.547,0,0,1,0,7.874L529.2,322.319A16.737,16.737,0,0,1,520.829,324.557Zm-7-4.624a14.039,14.039,0,0,0,13.994,0l29.907-17.265a1.793,1.793,0,0,0,0-3.1L527.824,282.3a14.039,14.039,0,0,0-13.994,0l-29.906,17.265a1.791,1.791,0,0,0,0,3.1Z" transform="translate(54.587 31.56)" fill="url(#linear-gradient-2)"/>
        <path id="Path_4" data-name="Path 4" d="M40.555,348.958a16.724,16.724,0,0,1-8.373-2.236L2.271,329.454a4.545,4.545,0,0,1,0-7.871l29.909-17.268a16.778,16.778,0,0,1,16.747,0l29.909,17.268a4.542,4.542,0,0,1,0,7.871L48.93,346.722A16.764,16.764,0,0,1,40.555,348.958Zm0-44.126a14.019,14.019,0,0,0-7,1.869L3.648,323.968a1.791,1.791,0,0,0,0,3.1l29.907,17.268a14.039,14.039,0,0,0,13.994,0l29.907-17.268a1.791,1.791,0,0,0,0-3.1L47.551,306.7A14.017,14.017,0,0,0,40.555,304.832Z" transform="translate(0 34.333)" fill="url(#linear-gradient-2)"/>
        <g id="Group_5" data-name="Group 5" transform="translate(94.43 41.041)">
          <path id="Path_5" data-name="Path 5" d="M330.416,433.4,116.559,309.924c-3.117-1.8-2.726-4.944.872-7.02l137.256-79.245c3.6-2.077,9.044-2.3,12.161-.5L480.707,346.626c3.115,1.8,2.726,4.944-.874,7.021L342.577,432.893C338.977,434.969,333.534,435.2,330.416,433.4Z" transform="translate(-81.421 -15.816)" fill="#020230" opacity="0.6"/>
          <path id="Path_6" data-name="Path 6" d="M338.687,457.6a13.672,13.672,0,0,1-6.73-1.578h0L87.884,315.11a5.455,5.455,0,0,1-3.092-4.673c0-2.14,1.49-4.227,4.087-5.726l166.377-97.479c4.564-2.636,11.267-2.889,15.266-.58L514.594,347.569a5.455,5.455,0,0,1,3.092,4.673c0,2.14-1.49,4.226-4.088,5.726L347.222,455.445A17.439,17.439,0,0,1,338.687,457.6ZM263.825,207.843a14.851,14.851,0,0,0-7.183,1.771L90.267,307.091c-1.706.986-2.717,2.236-2.717,3.346a2.914,2.914,0,0,0,1.713,2.288L333.336,453.64h0c3.115,1.8,8.843,1.538,12.5-.576l166.377-97.477c1.7-.983,2.717-2.233,2.717-3.343a2.915,2.915,0,0,0-1.712-2.288L269.145,209.039A10.912,10.912,0,0,0,263.825,207.843Z" transform="translate(-84.793 -17.733)" fill="url(#linear-gradient-2)"/>
          <path id="Path_7" data-name="Path 7" d="M521.876,160.662,308.861,37.678a5.517,5.517,0,0,0-4.347-.623h0l-.019.006-3.945,1.374,1.389.329a6.884,6.884,0,0,0-1.3,2.437L252.464,197.608a9.434,9.434,0,0,0,3.9,10.525L469.383,331.116a6.3,6.3,0,0,0,1.568.641l-.527,1.149,3.768-1.324-.009,0a6.021,6.021,0,0,0,3.426-3.983l48.171-156.407A9.437,9.437,0,0,0,521.876,160.662Z" transform="translate(-65.778 -36.853)" fill="url(#radial-gradient)"/>
          <path id="Path_8" data-name="Path 8" d="M477.395,318.84l.077.092L267.067,197.454c-3.095-1.787-8.5-1.564-12.075.5L119.05,276.44l-4.534-1.729,1.273,6.36.006,0a3.806,3.806,0,0,0,2.04,2.547l212.349,122.6c3.1,1.787,8.5,1.564,12.075-.5l136.288-78.686a5.451,5.451,0,0,0,2.887-3.366l.009.009,1.3-6.189Z" transform="translate(-81.414 -18.736)" fill="url(#radial-gradient-2)"/>
          <path id="Path_9" data-name="Path 9" d="M330.416,401.339,116.559,277.868c-3.117-1.8-2.726-4.943.872-7.02L254.688,191.6c3.6-2.079,9.044-2.3,12.161-.5L480.707,314.57c3.115,1.8,2.726,4.943-.874,7.02L342.577,400.835C338.977,402.913,333.534,403.139,330.416,401.339Z" transform="translate(-81.421 -19.46)" fill="url(#radial-gradient-3)"/>
          <path id="Path_10" data-name="Path 10" d="M479.83,311.342,342.574,390.586c-3.6,2.079-9.043,2.305-12.161.5L116.555,267.619a3.994,3.994,0,0,1-1.944-2.217c-.413,1.433.191,2.87,1.944,3.882L330.413,392.755c3.117,1.8,8.561,1.574,12.161-.5L479.83,313.007c2.374-1.37,3.318-3.2,2.816-4.8A5.661,5.661,0,0,1,479.83,311.342Z" transform="translate(-81.418 -10.876)" fill="#fff"/>
          <g id="Group_1" data-name="Group 1" transform="translate(129.533 199.175)" opacity="0.4">
            <path id="Path_11" data-name="Path 11" d="M208.718,251.992l-7.22-4.17c-.58-.335-.508-.92.161-1.306l8.523-4.92a2.508,2.508,0,0,1,2.261-.093l7.22,4.168c.58.335.508.92-.161,1.306l-8.523,4.919A2.513,2.513,0,0,1,208.718,251.992Z" transform="translate(-201.106 -212.793)" fill="#06033e"/>
            <path id="Path_12" data-name="Path 12" d="M218.729,257.771l-7.22-4.17c-.58-.335-.508-.919.161-1.3l8.523-4.922a2.512,2.512,0,0,1,2.261-.093l7.22,4.167c.58.336.508.92-.161,1.307l-8.523,4.919A2.5,2.5,0,0,1,218.729,257.771Z" transform="translate(-199.968 -212.136)" fill="#06033e"/>
            <path id="Path_13" data-name="Path 13" d="M228.742,263.552l-7.22-4.17c-.58-.335-.508-.919.161-1.3l8.523-4.922a2.517,2.517,0,0,1,2.261-.093l7.22,4.167c.58.336.508.92-.161,1.307L231,263.456A2.513,2.513,0,0,1,228.742,263.552Z" transform="translate(-198.83 -211.479)" fill="#06033e"/>
            <path id="Path_14" data-name="Path 14" d="M242.59,258.7l-7.22-4.167c-.58-.336-.506-.92.163-1.306l7.153-4.131a2.511,2.511,0,0,1,2.262-.093l7.22,4.168c.58.336.506.92-.161,1.307l-7.155,4.13A2.516,2.516,0,0,1,242.59,258.7Z" transform="translate(-197.256 -211.941)" fill="#06033e"/>
            <path id="Path_15" data-name="Path 15" d="M252.6,264.477l-7.22-4.167c-.58-.336-.506-.92.163-1.307l7.155-4.13a2.512,2.512,0,0,1,2.261-.093l7.22,4.167c.58.336.506.92-.161,1.307l-7.155,4.13A2.515,2.515,0,0,1,252.6,264.477Z" transform="translate(-196.118 -211.284)" fill="#06033e"/>
            <path id="Path_16" data-name="Path 16" d="M262.613,270.256l-7.22-4.167c-.58-.336-.506-.919.163-1.307l7.155-4.13a2.512,2.512,0,0,1,2.261-.093l7.22,4.167c.58.336.506.919-.163,1.307l-7.153,4.13A2.507,2.507,0,0,1,262.613,270.256Z" transform="translate(-194.98 -210.627)" fill="#06033e"/>
            <path id="Path_17" data-name="Path 17" d="M272.625,276.037l-7.22-4.167c-.581-.336-.506-.919.163-1.307l7.153-4.13a2.516,2.516,0,0,1,2.262-.093l7.22,4.167c.58.336.506.92-.161,1.307l-7.155,4.13A2.511,2.511,0,0,1,272.625,276.037Z" transform="translate(-193.842 -209.97)" fill="#06033e"/>
            <path id="Path_18" data-name="Path 18" d="M282.637,281.818l-7.22-4.167c-.58-.336-.506-.92.163-1.307l7.153-4.13a2.515,2.515,0,0,1,2.262-.093l7.22,4.167c.58.336.506.919-.161,1.306l-7.155,4.131A2.516,2.516,0,0,1,282.637,281.818Z" transform="translate(-192.704 -209.313)" fill="#06033e"/>
            <path id="Path_19" data-name="Path 19" d="M292.648,287.6l-7.22-4.167c-.58-.336-.506-.919.163-1.307l7.155-4.13a2.512,2.512,0,0,1,2.261-.093l7.22,4.167c.579.336.506.919-.163,1.306l-7.153,4.131A2.506,2.506,0,0,1,292.648,287.6Z" transform="translate(-191.566 -208.656)" fill="#06033e"/>
            <path id="Path_20" data-name="Path 20" d="M302.661,293.379l-7.22-4.167c-.58-.336-.506-.919.163-1.307l7.153-4.13a2.512,2.512,0,0,1,2.261-.093l7.221,4.167c.579.336.506.919-.163,1.306l-7.153,4.131A2.511,2.511,0,0,1,302.661,293.379Z" transform="translate(-190.428 -207.999)" fill="#06033e"/>
            <path id="Path_21" data-name="Path 21" d="M312.673,299.16l-7.22-4.167c-.58-.336-.508-.919.161-1.307l7.153-4.13a2.512,2.512,0,0,1,2.261-.093l7.221,4.168c.579.336.506.919-.163,1.306l-7.153,4.131A2.521,2.521,0,0,1,312.673,299.16Z" transform="translate(-189.29 -207.342)" fill="#06033e"/>
            <path id="Path_22" data-name="Path 22" d="M322.686,304.94l-7.221-4.167c-.579-.336-.506-.919.163-1.307l7.153-4.13a2.508,2.508,0,0,1,2.261-.093l7.221,4.168c.579.336.506.92-.163,1.306l-7.153,4.131A2.512,2.512,0,0,1,322.686,304.94Z" transform="translate(-188.152 -206.685)" fill="#06033e"/>
            <path id="Path_23" data-name="Path 23" d="M332.7,310.721l-7.22-4.167c-.58-.336-.508-.92.161-1.307l7.153-4.13a2.508,2.508,0,0,1,2.261-.093l7.221,4.168c.579.336.506.919-.163,1.306l-7.153,4.131A2.517,2.517,0,0,1,332.7,310.721Z" transform="translate(-187.014 -206.028)" fill="#06033e"/>
            <path id="Path_24" data-name="Path 24" d="M257.341,255.959l-7.22-4.168c-.579-.336-.506-.92.163-1.306l7.155-4.131a2.513,2.513,0,0,1,2.261-.093l7.22,4.168c.58.335.508.92-.161,1.306l-7.155,4.13A2.507,2.507,0,0,1,257.341,255.959Z" transform="translate(-195.579 -212.252)" fill="#06033e"/>
            <path id="Path_25" data-name="Path 25" d="M247.18,250.093l-7.22-4.168c-.58-.335-.506-.92.163-1.306l7.155-4.131a2.513,2.513,0,0,1,2.261-.093l7.22,4.168c.58.335.508.919-.161,1.306L249.442,250A2.511,2.511,0,0,1,247.18,250.093Z" transform="translate(-196.734 -212.919)" fill="#06033e"/>
            <path id="Path_26" data-name="Path 26" d="M237.852,244.707,222.3,235.73c-.58-.335-.506-.919.161-1.306l7.155-4.131a2.508,2.508,0,0,1,2.261-.093l15.55,8.977c.579.335.506.919-.163,1.306l-7.155,4.131A2.5,2.5,0,0,1,237.852,244.707Z" transform="translate(-198.741 -214.078)" fill="#06033e"/>
            <path id="Path_27" data-name="Path 27" d="M244.667,237.388l-12.62-7.286c-.58-.335-.506-.92.163-1.306l7.155-4.131a2.513,2.513,0,0,1,2.261-.093l12.618,7.285c.58.335.506.92-.161,1.306l-7.155,4.131A2.5,2.5,0,0,1,244.667,237.388Z" transform="translate(-197.633 -214.717)" fill="#06033e"/>
            <path id="Path_28" data-name="Path 28" d="M267.353,261.74l-7.22-4.168c-.579-.336-.506-.92.163-1.306l7.155-4.131a2.517,2.517,0,0,1,2.261-.093l7.22,4.167c.58.336.508.919-.161,1.307l-7.155,4.13A2.511,2.511,0,0,1,267.353,261.74Z" transform="translate(-194.441 -211.595)" fill="#06033e"/>
            <path id="Path_29" data-name="Path 29" d="M277.365,267.521l-7.22-4.168c-.579-.336-.506-.92.163-1.306l7.155-4.131a2.513,2.513,0,0,1,2.261-.093l7.22,4.167c.579.336.506.92-.163,1.307l-7.155,4.13A2.517,2.517,0,0,1,277.365,267.521Z" transform="translate(-193.303 -210.938)" fill="#06033e"/>
            <path id="Path_30" data-name="Path 30" d="M287.378,273.3l-7.22-4.167c-.579-.336-.506-.92.163-1.306l7.155-4.131a2.513,2.513,0,0,1,2.261-.093l7.22,4.167c.58.336.508.92-.161,1.307l-7.155,4.13A2.506,2.506,0,0,1,287.378,273.3Z" transform="translate(-192.165 -210.281)" fill="#06033e"/>
            <path id="Path_31" data-name="Path 31" d="M297.39,279.081l-7.22-4.167c-.581-.336-.506-.919.163-1.306l7.155-4.131a2.513,2.513,0,0,1,2.261-.093l7.22,4.167c.58.336.508.919-.161,1.307l-7.155,4.13A2.511,2.511,0,0,1,297.39,279.081Z" transform="translate(-191.027 -209.624)" fill="#06033e"/>
            <path id="Path_32" data-name="Path 32" d="M307.4,284.862l-7.22-4.167c-.579-.336-.506-.919.163-1.306l7.153-4.131a2.513,2.513,0,0,1,2.261-.093l7.22,4.167c.58.336.508.92-.161,1.308l-7.155,4.13A2.512,2.512,0,0,1,307.4,284.862Z" transform="translate(-189.889 -208.967)" fill="#06033e"/>
            <path id="Path_33" data-name="Path 33" d="M317.413,290.641l-7.22-4.167c-.58-.336-.506-.919.161-1.307l7.155-4.13a2.513,2.513,0,0,1,2.261-.093l7.22,4.167c.58.336.508.92-.161,1.307l-7.153,4.13A2.506,2.506,0,0,1,317.413,290.641Z" transform="translate(-188.752 -208.31)" fill="#06033e"/>
            <path id="Path_34" data-name="Path 34" d="M327.425,296.422l-7.22-4.167c-.58-.336-.506-.92.161-1.307l7.155-4.13a2.512,2.512,0,0,1,2.261-.093l7.22,4.167c.58.336.508.92-.161,1.307l-7.153,4.13A2.51,2.51,0,0,1,327.425,296.422Z" transform="translate(-187.614 -207.653)" fill="#06033e"/>
            <path id="Path_35" data-name="Path 35" d="M337.437,302.2l-7.22-4.167c-.58-.336-.506-.919.161-1.307l7.155-4.13a2.513,2.513,0,0,1,2.261-.093l7.22,4.167c.58.336.508.92-.161,1.307l-7.155,4.13A2.512,2.512,0,0,1,337.437,302.2Z" transform="translate(-186.476 -206.996)" fill="#06033e"/>
            <path id="Path_36" data-name="Path 36" d="M347.45,307.983l-7.22-4.167c-.58-.336-.506-.92.163-1.307l7.153-4.13a2.513,2.513,0,0,1,2.261-.093l7.22,4.167c.58.336.508.919-.161,1.306l-7.155,4.131A2.5,2.5,0,0,1,347.45,307.983Z" transform="translate(-185.338 -206.339)" fill="#06033e"/>
            <path id="Path_37" data-name="Path 37" d="M366.12,318.764l-15.755-9.1c-.58-.335-.508-.919.161-1.306l7.155-4.13a2.508,2.508,0,0,1,2.261-.095l15.755,9.1c.58.336.506.92-.163,1.307l-7.153,4.13A2.517,2.517,0,0,1,366.12,318.764Z" transform="translate(-184.186 -205.674)" fill="#06033e"/>
            <path id="Path_38" data-name="Path 38" d="M385.362,307.365l-13.3-7.679c-.58-.335-.508-.918.161-1.3l7.153-4.131a2.516,2.516,0,0,1,2.263-.093l13.3,7.679c.58.335.508.918-.161,1.3l-7.155,4.131A2.517,2.517,0,0,1,385.362,307.365Z" transform="translate(-181.719 -206.808)" fill="#06033e"/>
            <path id="Path_39" data-name="Path 39" d="M284.886,260.61l-7.22-4.168c-.58-.335-.508-.918.161-1.306l7.155-4.13a2.508,2.508,0,0,1,2.261-.095l7.22,4.17c.58.335.506.919-.163,1.3l-7.155,4.131A2.514,2.514,0,0,1,284.886,260.61Z" transform="translate(-192.448 -211.724)" fill="#06033e"/>
            <path id="Path_40" data-name="Path 40" d="M274.625,254.686l-7.22-4.168c-.58-.335-.506-.92.163-1.306l7.155-4.131a2.508,2.508,0,0,1,2.261-.093l7.22,4.168c.58.335.506.92-.161,1.306l-7.155,4.13A2.516,2.516,0,0,1,274.625,254.686Z" transform="translate(-193.615 -212.397)" fill="#06033e"/>
            <path id="Path_41" data-name="Path 41" d="M264.364,248.761l-7.22-4.168c-.579-.335-.506-.92.163-1.306l7.155-4.131a2.512,2.512,0,0,1,2.261-.093l7.22,4.168c.581.335.508.92-.161,1.306l-7.155,4.131A2.516,2.516,0,0,1,264.364,248.761Z" transform="translate(-194.781 -213.07)" fill="#06033e"/>
            <path id="Path_42" data-name="Path 42" d="M254.1,242.837l-7.22-4.168c-.58-.335-.506-.919.163-1.306l7.153-4.131a2.508,2.508,0,0,1,2.261-.093l7.22,4.168c.581.335.506.919-.163,1.306l-7.155,4.131A2.509,2.509,0,0,1,254.1,242.837Z" transform="translate(-195.947 -213.744)" fill="#06033e"/>
            <path id="Path_43" data-name="Path 43" d="M294.9,266.39l-7.22-4.168c-.58-.335-.508-.919.161-1.306l7.155-4.13a2.508,2.508,0,0,1,2.261-.095l7.22,4.17c.58.335.508.918-.161,1.3l-7.155,4.131A2.517,2.517,0,0,1,294.9,266.39Z" transform="translate(-191.311 -211.067)" fill="#06033e"/>
            <path id="Path_44" data-name="Path 44" d="M304.911,272.171,297.691,268c-.58-.335-.508-.92.161-1.306l7.153-4.13a2.511,2.511,0,0,1,2.263-.095l7.22,4.17c.58.335.508.918-.161,1.3l-7.155,4.131A2.522,2.522,0,0,1,304.911,272.171Z" transform="translate(-190.173 -210.41)" fill="#06033e"/>
            <path id="Path_45" data-name="Path 45" d="M314.923,277.952l-7.22-4.168c-.58-.335-.508-.919.161-1.306l7.155-4.13a2.508,2.508,0,0,1,2.261-.095l7.22,4.17c.58.335.506.918-.161,1.3l-7.155,4.131A2.522,2.522,0,0,1,314.923,277.952Z" transform="translate(-189.035 -209.753)" fill="#06033e"/>
            <path id="Path_46" data-name="Path 46" d="M324.935,283.732l-7.22-4.17c-.581-.333-.508-.918.161-1.3l7.155-4.13a2.508,2.508,0,0,1,2.261-.095l7.22,4.17c.58.335.506.918-.161,1.3l-7.155,4.131A2.517,2.517,0,0,1,324.935,283.732Z" transform="translate(-187.897 -209.096)" fill="#06033e"/>
            <path id="Path_47" data-name="Path 47" d="M334.946,289.513l-7.22-4.17c-.58-.335-.508-.918.161-1.3l7.155-4.13a2.508,2.508,0,0,1,2.261-.095l7.22,4.168c.58.335.508.92-.161,1.306l-7.155,4.13A2.517,2.517,0,0,1,334.946,289.513Z" transform="translate(-186.759 -208.439)" fill="#06033e"/>
            <path id="Path_48" data-name="Path 48" d="M344.959,295.292l-7.22-4.17c-.58-.335-.508-.918.161-1.3l7.155-4.131a2.513,2.513,0,0,1,2.261-.093l7.22,4.17c.58.333.506.918-.161,1.3l-7.155,4.13A2.508,2.508,0,0,1,344.959,295.292Z" transform="translate(-185.621 -207.782)" fill="#06033e"/>
            <path id="Path_49" data-name="Path 49" d="M354.971,301.073l-7.22-4.17c-.58-.335-.508-.918.161-1.3l7.155-4.131a2.513,2.513,0,0,1,2.261-.093l7.22,4.168c.58.335.506.919-.163,1.306l-7.153,4.13A2.513,2.513,0,0,1,354.971,301.073Z" transform="translate(-184.483 -207.125)" fill="#06033e"/>
            <path id="Path_50" data-name="Path 50" d="M364.983,306.854l-7.22-4.17c-.58-.335-.508-.918.161-1.3l7.155-4.131a2.512,2.512,0,0,1,2.261-.093l7.22,4.168c.58.335.506.92-.161,1.306l-7.155,4.13A2.518,2.518,0,0,1,364.983,306.854Z" transform="translate(-183.345 -206.468)" fill="#06033e"/>
            <path id="Path_51" data-name="Path 51" d="M375,312.634l-7.22-4.17c-.58-.335-.508-.919.161-1.3l7.155-4.131a2.513,2.513,0,0,1,2.261-.093l7.22,4.168c.58.335.508.92-.161,1.306l-7.155,4.13A2.513,2.513,0,0,1,375,312.634Z" transform="translate(-182.207 -205.811)" fill="#06033e"/>
            <path id="Path_52" data-name="Path 52" d="M279.615,246.312l-7.22-4.168c-.58-.335-.506-.919.163-1.306l7.153-4.131a2.511,2.511,0,0,1,2.263-.093l7.22,4.168c.58.335.506.919-.163,1.306l-7.153,4.131A2.52,2.52,0,0,1,279.615,246.312Z" transform="translate(-193.048 -213.349)" fill="#06033e"/>
            <path id="Path_53" data-name="Path 53" d="M269.652,240.56l-7.22-4.168c-.58-.335-.508-.919.161-1.306l7.155-4.131a2.512,2.512,0,0,1,2.261-.093l7.22,4.168c.58.335.506.92-.163,1.306l-7.155,4.131A2.509,2.509,0,0,1,269.652,240.56Z" transform="translate(-194.18 -214.002)" fill="#06033e"/>
            <path id="Path_54" data-name="Path 54" d="M259.689,234.809l-7.22-4.168c-.579-.335-.506-.92.163-1.306l7.155-4.131a2.508,2.508,0,0,1,2.261-.093l7.22,4.168c.579.335.506.92-.163,1.306l-7.155,4.131A2.513,2.513,0,0,1,259.689,234.809Z" transform="translate(-195.312 -214.656)" fill="#06033e"/>
            <path id="Path_55" data-name="Path 55" d="M249.728,229.057l-7.22-4.168c-.58-.335-.506-.92.163-1.306l7.155-4.131a2.508,2.508,0,0,1,2.261-.093l7.22,4.168c.58.335.508.92-.161,1.306l-7.155,4.131A2.521,2.521,0,0,1,249.728,229.057Z" transform="translate(-196.444 -215.31)" fill="#06033e"/>
            <path id="Path_56" data-name="Path 56" d="M259.971,222.859l-7.22-4.168c-.58-.335-.508-.92.161-1.306l2.365-1.365a2.511,2.511,0,0,1,2.263-.093l7.22,4.168c.58.335.506.92-.163,1.306l-2.365,1.365A2.512,2.512,0,0,1,259.971,222.859Z" transform="translate(-195.28 -215.7)" fill="#06033e"/>
            <path id="Path_57" data-name="Path 57" d="M272.973,230.366l-7.22-4.168c-.579-.335-.506-.92.163-1.306l2.365-1.365a2.508,2.508,0,0,1,2.261-.093l7.22,4.168c.579.335.506.92-.163,1.306l-2.365,1.365A2.512,2.512,0,0,1,272.973,230.366Z" transform="translate(-193.802 -214.847)" fill="#06033e"/>
            <path id="Path_58" data-name="Path 58" d="M282.893,236.094l-7.22-4.168c-.58-.335-.508-.92.161-1.306l2.365-1.365a2.516,2.516,0,0,1,2.263-.093l7.22,4.168c.58.335.506.92-.163,1.306L285.154,236A2.512,2.512,0,0,1,282.893,236.094Z" transform="translate(-192.675 -214.196)" fill="#06033e"/>
            <path id="Path_59" data-name="Path 59" d="M292.813,241.822l-7.22-4.168c-.58-.335-.506-.92.163-1.306l2.365-1.365a2.513,2.513,0,0,1,2.261-.093l7.22,4.168c.58.335.506.919-.161,1.306l-2.365,1.365A2.52,2.52,0,0,1,292.813,241.822Z" transform="translate(-191.547 -213.545)" fill="#06033e"/>
            <path id="Path_60" data-name="Path 60" d="M302.735,247.549l-7.22-4.168c-.58-.335-.506-.92.163-1.306l2.365-1.365a2.508,2.508,0,0,1,2.261-.093l7.22,4.168c.58.335.508.92-.161,1.306L305,247.456A2.517,2.517,0,0,1,302.735,247.549Z" transform="translate(-190.42 -212.894)" fill="#06033e"/>
            <path id="Path_61" data-name="Path 61" d="M358.121,279.526l-7.22-4.167c-.58-.336-.508-.919.161-1.307l2.366-1.365a2.513,2.513,0,0,1,2.261-.093l7.221,4.168c.58.336.508.919-.161,1.306l-2.366,1.367A2.515,2.515,0,0,1,358.121,279.526Z" transform="translate(-184.125 -209.259)" fill="#06033e"/>
            <path id="Path_62" data-name="Path 62" d="M368.042,285.255l-7.221-4.168c-.579-.335-.506-.919.163-1.306l2.365-1.365a2.513,2.513,0,0,1,2.261-.095l7.221,4.17c.58.335.506.92-.163,1.3l-2.365,1.367A2.522,2.522,0,0,1,368.042,285.255Z" transform="translate(-182.997 -208.608)" fill="#06033e"/>
            <path id="Path_63" data-name="Path 63" d="M377.962,290.981l-7.22-4.168c-.58-.335-.506-.92.161-1.306l2.366-1.365a2.508,2.508,0,0,1,2.261-.093l7.22,4.168c.58.335.508.918-.161,1.306l-2.366,1.365A2.512,2.512,0,0,1,377.962,290.981Z" transform="translate(-181.87 -207.957)" fill="#06033e"/>
            <path id="Path_64" data-name="Path 64" d="M387.883,296.709l-7.22-4.167c-.58-.336-.508-.92.161-1.307l2.366-1.365a2.513,2.513,0,0,1,2.261-.093l7.22,4.167c.581.336.508.92-.161,1.307l-2.366,1.365A2.512,2.512,0,0,1,387.883,296.709Z" transform="translate(-180.742 -207.306)" fill="#06033e"/>
            <path id="Path_65" data-name="Path 65" d="M289.626,252.092l-7.22-4.168c-.58-.335-.506-.92.163-1.306l7.153-4.131a2.511,2.511,0,0,1,2.262-.093l7.22,4.168c.58.335.506.92-.161,1.306L291.889,252A2.511,2.511,0,0,1,289.626,252.092Z" transform="translate(-191.91 -212.692)" fill="#06033e"/>
            <path id="Path_66" data-name="Path 66" d="M299.638,257.873l-7.22-4.167c-.58-.336-.506-.92.163-1.307l7.153-4.13a2.508,2.508,0,0,1,2.261-.093l7.221,4.168c.579.336.506.92-.163,1.306l-7.153,4.13A2.515,2.515,0,0,1,299.638,257.873Z" transform="translate(-190.772 -212.035)" fill="#06033e"/>
            <path id="Path_67" data-name="Path 67" d="M309.651,263.654l-7.22-4.168c-.58-.335-.508-.918.161-1.306l7.153-4.13a2.508,2.508,0,0,1,2.261-.093l7.221,4.168c.579.336.506.919-.163,1.306l-7.153,4.131A2.521,2.521,0,0,1,309.651,263.654Z" transform="translate(-189.634 -211.378)" fill="#06033e"/>
            <path id="Path_68" data-name="Path 68" d="M319.663,269.433l-7.221-4.168c-.579-.335-.506-.918.163-1.306l7.153-4.13a2.508,2.508,0,0,1,2.261-.093l7.221,4.168c.579.335.506.919-.163,1.3l-7.153,4.131A2.508,2.508,0,0,1,319.663,269.433Z" transform="translate(-188.496 -210.721)" fill="#06033e"/>
            <path id="Path_69" data-name="Path 69" d="M329.676,275.214l-7.221-4.168c-.579-.335-.506-.918.163-1.306l7.153-4.13a2.508,2.508,0,0,1,2.261-.093l7.22,4.168c.58.335.508.92-.161,1.3l-7.153,4.131A2.517,2.517,0,0,1,329.676,275.214Z" transform="translate(-187.358 -210.064)" fill="#06033e"/>
            <path id="Path_70" data-name="Path 70" d="M339.688,281l-7.221-4.168c-.579-.335-.506-.919.163-1.306l7.153-4.13a2.508,2.508,0,0,1,2.261-.093l7.221,4.168c.579.335.506.92-.163,1.3l-7.153,4.131A2.518,2.518,0,0,1,339.688,281Z" transform="translate(-186.22 -209.407)" fill="#06033e"/>
            <path id="Path_71" data-name="Path 71" d="M349.7,286.775l-7.22-4.168c-.58-.335-.508-.918.161-1.306l7.153-4.13a2.508,2.508,0,0,1,2.261-.095l7.22,4.17c.58.335.508.919-.161,1.3l-7.153,4.131A2.508,2.508,0,0,1,349.7,286.775Z" transform="translate(-185.082 -208.75)" fill="#06033e"/>
            <path id="Path_72" data-name="Path 72" d="M359.711,292.556l-7.22-4.168c-.58-.335-.508-.92.161-1.306l7.153-4.13a2.508,2.508,0,0,1,2.261-.095l7.221,4.17c.579.335.506.92-.163,1.3l-7.153,4.131A2.521,2.521,0,0,1,359.711,292.556Z" transform="translate(-183.944 -208.093)" fill="#06033e"/>
            <path id="Path_73" data-name="Path 73" d="M369.724,298.337l-7.221-4.168c-.579-.335-.506-.92.163-1.306l7.153-4.13a2.508,2.508,0,0,1,2.261-.095l7.221,4.17c.579.335.506.918-.163,1.3l-7.153,4.131A2.522,2.522,0,0,1,369.724,298.337Z" transform="translate(-182.806 -207.436)" fill="#06033e"/>
            <path id="Path_74" data-name="Path 74" d="M233.819,253.633l-21.264-12.278c-.579-.335-.506-.919.163-1.306l7.155-4.131a2.512,2.512,0,0,1,2.261-.093L243.4,248.1c.58.335.506.919-.163,1.306l-7.153,4.131A2.507,2.507,0,0,1,233.819,253.633Z" transform="translate(-199.849 -213.438)" fill="#06033e"/>
            <path id="Path_75" data-name="Path 75" d="M356.819,324.649l-21.263-12.276c-.58-.335-.508-.919.161-1.306l7.153-4.13a2.508,2.508,0,0,1,2.261-.095L366.4,319.118c.58.336.508.919-.161,1.307l-7.155,4.13A2.517,2.517,0,0,1,356.819,324.649Z" transform="translate(-185.869 -205.367)" fill="#06033e"/>
            <path id="Path_76" data-name="Path 76" d="M315.347,313.552l-7.22-4.168c-.58-.336-.508-.92.161-1.306l8.523-4.92a2.512,2.512,0,0,1,2.261-.093l7.22,4.167c.58.336.506.919-.161,1.307l-8.523,4.919A2.5,2.5,0,0,1,315.347,313.552Z" transform="translate(-188.986 -205.796)" fill="#06033e"/>
            <path id="Path_77" data-name="Path 77" d="M243.081,271.83l-11.546-6.668c-.58-.335-.508-.92.161-1.3l8.523-4.922a2.517,2.517,0,0,1,2.261-.093l11.546,6.666c.58.336.506.92-.163,1.306l-8.521,4.92A2.512,2.512,0,0,1,243.081,271.83Z" transform="translate(-197.692 -210.822)" fill="#06033e"/>
            <path id="Path_78" data-name="Path 78" d="M306.141,308.239l-11.546-6.668c-.58-.335-.506-.919.163-1.306l8.523-4.92a2.512,2.512,0,0,1,2.261-.093l11.546,6.668c.581.335.508.918-.161,1.306l-8.523,4.919A2.52,2.52,0,0,1,306.141,308.239Z" transform="translate(-190.524 -206.684)" fill="#06033e"/>
            <path id="Path_79" data-name="Path 79" d="M257.525,280.17,245.979,273.5c-.579-.336-.506-.919.163-1.307l8.521-4.919a2.511,2.511,0,0,1,2.263-.093l11.546,6.668c.579.335.506.918-.163,1.3l-8.521,4.92A2.52,2.52,0,0,1,257.525,280.17Z" transform="translate(-196.05 -209.874)" fill="#06033e"/>
            <path id="Path_80" data-name="Path 80" d="M256.956,267.2l50.2,28.985a.688.688,0,0,1,0,1.3l-8.69,5.018a2.5,2.5,0,0,1-2.255,0l-50.2-28.985Z" transform="translate(-196.002 -209.847)" fill="#06033e"/>
            <path id="Path_81" data-name="Path 81" d="M343.144,322.959l8.043,4.643c.474.275.415.754-.133,1.071l-3.486,2.012a2.067,2.067,0,0,1-1.854.078l-8.043-4.645c-.475-.275-.416-.754.133-1.071l3.486-2.012A2.062,2.062,0,0,1,343.144,322.959Z" transform="translate(-185.62 -203.53)" fill="#06033e"/>
            <path id="Path_82" data-name="Path 82" d="M333.048,317.13l8.043,4.643c.474.275.415.754-.133,1.072l-3.486,2.012a2.066,2.066,0,0,1-1.854.076l-8.043-4.643c-.475-.274-.416-.754.133-1.071l3.486-2.012A2.062,2.062,0,0,1,333.048,317.13Z" transform="translate(-186.768 -204.193)" fill="#06033e"/>
            <path id="Path_83" data-name="Path 83" d="M323.037,311.35l8.043,4.643c.474.275.415.754-.133,1.072l-3.486,2.012a2.066,2.066,0,0,1-1.854.076l-8.043-4.642c-.475-.275-.416-.755.133-1.072l3.486-2.012A2.057,2.057,0,0,1,323.037,311.35Z" transform="translate(-187.906 -204.85)" fill="#06033e"/>
            <path id="Path_84" data-name="Path 84" d="M338.578,313.939l8.043,4.642c.475.275.415.755-.133,1.072L343,321.665a2.061,2.061,0,0,1-1.854.077l-8.043-4.643c-.475-.275-.415-.754.133-1.072l3.486-2.012A2.061,2.061,0,0,1,338.578,313.939Z" transform="translate(-186.139 -204.555)" fill="#06033e"/>
          </g>
          <g id="Group_2" data-name="Group 2" transform="translate(129.533 199.175)" opacity="0.4">
            <path id="Path_85" data-name="Path 85" d="M208.718,251.992l-7.22-4.17c-.58-.335-.508-.92.161-1.306l8.523-4.92a2.508,2.508,0,0,1,2.261-.093l7.22,4.168c.58.335.508.92-.161,1.306l-8.523,4.919A2.513,2.513,0,0,1,208.718,251.992Z" transform="translate(-201.106 -212.793)" fill="#06033e"/>
            <path id="Path_86" data-name="Path 86" d="M218.729,257.771l-7.22-4.17c-.58-.335-.508-.919.161-1.3l8.523-4.922a2.512,2.512,0,0,1,2.261-.093l7.22,4.167c.58.336.508.92-.161,1.307l-8.523,4.919A2.5,2.5,0,0,1,218.729,257.771Z" transform="translate(-199.968 -212.136)" fill="#06033e"/>
            <path id="Path_87" data-name="Path 87" d="M228.742,263.552l-7.22-4.17c-.58-.335-.508-.919.161-1.3l8.523-4.922a2.517,2.517,0,0,1,2.261-.093l7.22,4.167c.58.336.508.92-.161,1.307L231,263.456A2.513,2.513,0,0,1,228.742,263.552Z" transform="translate(-198.83 -211.479)" fill="#06033e"/>
            <path id="Path_88" data-name="Path 88" d="M242.59,258.7l-7.22-4.167c-.58-.336-.506-.92.163-1.306l7.153-4.131a2.511,2.511,0,0,1,2.262-.093l7.22,4.168c.58.336.506.92-.161,1.307l-7.155,4.13A2.516,2.516,0,0,1,242.59,258.7Z" transform="translate(-197.256 -211.941)" fill="#06033e"/>
            <path id="Path_89" data-name="Path 89" d="M252.6,264.477l-7.22-4.167c-.58-.336-.506-.92.163-1.307l7.155-4.13a2.512,2.512,0,0,1,2.261-.093l7.22,4.167c.58.336.506.92-.161,1.307l-7.155,4.13A2.515,2.515,0,0,1,252.6,264.477Z" transform="translate(-196.118 -211.284)" fill="#06033e"/>
            <path id="Path_90" data-name="Path 90" d="M262.613,270.256l-7.22-4.167c-.58-.336-.506-.919.163-1.307l7.155-4.13a2.512,2.512,0,0,1,2.261-.093l7.22,4.167c.58.336.506.919-.163,1.307l-7.153,4.13A2.507,2.507,0,0,1,262.613,270.256Z" transform="translate(-194.98 -210.627)" fill="#06033e"/>
            <path id="Path_91" data-name="Path 91" d="M272.625,276.037l-7.22-4.167c-.581-.336-.506-.919.163-1.307l7.153-4.13a2.516,2.516,0,0,1,2.262-.093l7.22,4.167c.58.336.506.92-.161,1.307l-7.155,4.13A2.511,2.511,0,0,1,272.625,276.037Z" transform="translate(-193.842 -209.97)" fill="#06033e"/>
            <path id="Path_92" data-name="Path 92" d="M282.637,281.818l-7.22-4.167c-.58-.336-.506-.92.163-1.307l7.153-4.13a2.515,2.515,0,0,1,2.262-.093l7.22,4.167c.58.336.506.919-.161,1.306l-7.155,4.131A2.516,2.516,0,0,1,282.637,281.818Z" transform="translate(-192.704 -209.313)" fill="#06033e"/>
            <path id="Path_93" data-name="Path 93" d="M292.648,287.6l-7.22-4.167c-.58-.336-.506-.919.163-1.307l7.155-4.13a2.512,2.512,0,0,1,2.261-.093l7.22,4.167c.579.336.506.919-.163,1.306l-7.153,4.131A2.506,2.506,0,0,1,292.648,287.6Z" transform="translate(-191.566 -208.656)" fill="#06033e"/>
            <path id="Path_94" data-name="Path 94" d="M302.661,293.379l-7.22-4.167c-.58-.336-.506-.919.163-1.307l7.153-4.13a2.512,2.512,0,0,1,2.261-.093l7.221,4.167c.579.336.506.919-.163,1.306l-7.153,4.131A2.511,2.511,0,0,1,302.661,293.379Z" transform="translate(-190.428 -207.999)" fill="#06033e"/>
            <path id="Path_95" data-name="Path 95" d="M312.673,299.16l-7.22-4.167c-.58-.336-.508-.919.161-1.307l7.153-4.13a2.512,2.512,0,0,1,2.261-.093l7.221,4.168c.579.336.506.919-.163,1.306l-7.153,4.131A2.521,2.521,0,0,1,312.673,299.16Z" transform="translate(-189.29 -207.342)" fill="#06033e"/>
            <path id="Path_96" data-name="Path 96" d="M322.686,304.94l-7.221-4.167c-.579-.336-.506-.919.163-1.307l7.153-4.13a2.508,2.508,0,0,1,2.261-.093l7.221,4.168c.579.336.506.92-.163,1.306l-7.153,4.131A2.512,2.512,0,0,1,322.686,304.94Z" transform="translate(-188.152 -206.685)" fill="#06033e"/>
            <path id="Path_97" data-name="Path 97" d="M332.7,310.721l-7.22-4.167c-.58-.336-.508-.92.161-1.307l7.153-4.13a2.508,2.508,0,0,1,2.261-.093l7.221,4.168c.579.336.506.919-.163,1.306l-7.153,4.131A2.517,2.517,0,0,1,332.7,310.721Z" transform="translate(-187.014 -206.028)" fill="#06033e"/>
            <path id="Path_98" data-name="Path 98" d="M257.341,255.959l-7.22-4.168c-.579-.336-.506-.92.163-1.306l7.155-4.131a2.513,2.513,0,0,1,2.261-.093l7.22,4.168c.58.335.508.92-.161,1.306l-7.155,4.13A2.507,2.507,0,0,1,257.341,255.959Z" transform="translate(-195.579 -212.252)" fill="#06033e"/>
            <path id="Path_99" data-name="Path 99" d="M247.18,250.093l-7.22-4.168c-.58-.335-.506-.92.163-1.306l7.155-4.131a2.513,2.513,0,0,1,2.261-.093l7.22,4.168c.58.335.508.919-.161,1.306L249.442,250A2.511,2.511,0,0,1,247.18,250.093Z" transform="translate(-196.734 -212.919)" fill="#06033e"/>
            <path id="Path_100" data-name="Path 100" d="M237.852,244.707,222.3,235.73c-.58-.335-.506-.919.161-1.306l7.155-4.131a2.508,2.508,0,0,1,2.261-.093l15.55,8.977c.579.335.506.919-.163,1.306l-7.155,4.131A2.5,2.5,0,0,1,237.852,244.707Z" transform="translate(-198.741 -214.078)" fill="#06033e"/>
            <path id="Path_101" data-name="Path 101" d="M244.667,237.388l-12.62-7.286c-.58-.335-.506-.92.163-1.306l7.155-4.131a2.513,2.513,0,0,1,2.261-.093l12.618,7.285c.58.335.506.92-.161,1.306l-7.155,4.131A2.5,2.5,0,0,1,244.667,237.388Z" transform="translate(-197.633 -214.717)" fill="#06033e"/>
            <path id="Path_102" data-name="Path 102" d="M267.353,261.74l-7.22-4.168c-.579-.336-.506-.92.163-1.306l7.155-4.131a2.517,2.517,0,0,1,2.261-.093l7.22,4.167c.58.336.508.919-.161,1.307l-7.155,4.13A2.511,2.511,0,0,1,267.353,261.74Z" transform="translate(-194.441 -211.595)" fill="#06033e"/>
            <path id="Path_103" data-name="Path 103" d="M277.365,267.521l-7.22-4.168c-.579-.336-.506-.92.163-1.306l7.155-4.131a2.513,2.513,0,0,1,2.261-.093l7.22,4.167c.579.336.506.92-.163,1.307l-7.155,4.13A2.517,2.517,0,0,1,277.365,267.521Z" transform="translate(-193.303 -210.938)" fill="#06033e"/>
            <path id="Path_104" data-name="Path 104" d="M287.378,273.3l-7.22-4.167c-.579-.336-.506-.92.163-1.306l7.155-4.131a2.513,2.513,0,0,1,2.261-.093l7.22,4.167c.58.336.508.92-.161,1.307l-7.155,4.13A2.506,2.506,0,0,1,287.378,273.3Z" transform="translate(-192.165 -210.281)" fill="#06033e"/>
            <path id="Path_105" data-name="Path 105" d="M297.39,279.081l-7.22-4.167c-.581-.336-.506-.919.163-1.306l7.155-4.131a2.513,2.513,0,0,1,2.261-.093l7.22,4.167c.58.336.508.919-.161,1.307l-7.155,4.13A2.511,2.511,0,0,1,297.39,279.081Z" transform="translate(-191.027 -209.624)" fill="#06033e"/>
            <path id="Path_106" data-name="Path 106" d="M307.4,284.862l-7.22-4.167c-.579-.336-.506-.919.163-1.306l7.153-4.131a2.513,2.513,0,0,1,2.261-.093l7.22,4.167c.58.336.508.92-.161,1.308l-7.155,4.13A2.512,2.512,0,0,1,307.4,284.862Z" transform="translate(-189.889 -208.967)" fill="#06033e"/>
            <path id="Path_107" data-name="Path 107" d="M317.413,290.641l-7.22-4.167c-.58-.336-.506-.919.161-1.307l7.155-4.13a2.513,2.513,0,0,1,2.261-.093l7.22,4.167c.58.336.508.92-.161,1.307l-7.153,4.13A2.506,2.506,0,0,1,317.413,290.641Z" transform="translate(-188.752 -208.31)" fill="#06033e"/>
            <path id="Path_108" data-name="Path 108" d="M327.425,296.422l-7.22-4.167c-.58-.336-.506-.92.161-1.307l7.155-4.13a2.512,2.512,0,0,1,2.261-.093l7.22,4.167c.58.336.508.92-.161,1.307l-7.153,4.13A2.51,2.51,0,0,1,327.425,296.422Z" transform="translate(-187.614 -207.653)" fill="#06033e"/>
            <path id="Path_109" data-name="Path 109" d="M337.437,302.2l-7.22-4.167c-.58-.336-.506-.919.161-1.307l7.155-4.13a2.513,2.513,0,0,1,2.261-.093l7.22,4.167c.58.336.508.92-.161,1.307l-7.155,4.13A2.512,2.512,0,0,1,337.437,302.2Z" transform="translate(-186.476 -206.996)" fill="#06033e"/>
            <path id="Path_110" data-name="Path 110" d="M347.45,307.983l-7.22-4.167c-.58-.336-.506-.92.163-1.307l7.153-4.13a2.513,2.513,0,0,1,2.261-.093l7.22,4.167c.58.336.508.919-.161,1.306l-7.155,4.131A2.5,2.5,0,0,1,347.45,307.983Z" transform="translate(-185.338 -206.339)" fill="#06033e"/>
            <path id="Path_111" data-name="Path 111" d="M366.12,318.764l-15.755-9.1c-.58-.335-.508-.919.161-1.306l7.155-4.13a2.508,2.508,0,0,1,2.261-.095l15.755,9.1c.58.336.506.92-.163,1.307l-7.153,4.13A2.517,2.517,0,0,1,366.12,318.764Z" transform="translate(-184.186 -205.674)" fill="#06033e"/>
            <path id="Path_112" data-name="Path 112" d="M385.362,307.365l-13.3-7.679c-.58-.335-.508-.918.161-1.3l7.153-4.131a2.516,2.516,0,0,1,2.263-.093l13.3,7.679c.58.335.508.918-.161,1.3l-7.155,4.131A2.517,2.517,0,0,1,385.362,307.365Z" transform="translate(-181.719 -206.808)" fill="#06033e"/>
            <path id="Path_113" data-name="Path 113" d="M284.886,260.61l-7.22-4.168c-.58-.335-.508-.918.161-1.306l7.155-4.13a2.508,2.508,0,0,1,2.261-.095l7.22,4.17c.58.335.506.919-.163,1.3l-7.155,4.131A2.514,2.514,0,0,1,284.886,260.61Z" transform="translate(-192.448 -211.724)" fill="#06033e"/>
            <path id="Path_114" data-name="Path 114" d="M274.625,254.686l-7.22-4.168c-.58-.335-.506-.92.163-1.306l7.155-4.131a2.508,2.508,0,0,1,2.261-.093l7.22,4.168c.58.335.506.92-.161,1.306l-7.155,4.13A2.516,2.516,0,0,1,274.625,254.686Z" transform="translate(-193.615 -212.397)" fill="#06033e"/>
            <path id="Path_115" data-name="Path 115" d="M264.364,248.761l-7.22-4.168c-.579-.335-.506-.92.163-1.306l7.155-4.131a2.512,2.512,0,0,1,2.261-.093l7.22,4.168c.581.335.508.92-.161,1.306l-7.155,4.131A2.516,2.516,0,0,1,264.364,248.761Z" transform="translate(-194.781 -213.07)" fill="#06033e"/>
            <path id="Path_116" data-name="Path 116" d="M254.1,242.837l-7.22-4.168c-.58-.335-.506-.919.163-1.306l7.153-4.131a2.508,2.508,0,0,1,2.261-.093l7.22,4.168c.581.335.506.919-.163,1.306l-7.155,4.131A2.509,2.509,0,0,1,254.1,242.837Z" transform="translate(-195.947 -213.744)" fill="#06033e"/>
            <path id="Path_117" data-name="Path 117" d="M294.9,266.39l-7.22-4.168c-.58-.335-.508-.919.161-1.306l7.155-4.13a2.508,2.508,0,0,1,2.261-.095l7.22,4.17c.58.335.508.918-.161,1.3l-7.155,4.131A2.517,2.517,0,0,1,294.9,266.39Z" transform="translate(-191.311 -211.067)" fill="#06033e"/>
            <path id="Path_118" data-name="Path 118" d="M304.911,272.171,297.691,268c-.58-.335-.508-.92.161-1.306l7.153-4.13a2.511,2.511,0,0,1,2.263-.095l7.22,4.17c.58.335.508.918-.161,1.3l-7.155,4.131A2.522,2.522,0,0,1,304.911,272.171Z" transform="translate(-190.173 -210.41)" fill="#06033e"/>
            <path id="Path_119" data-name="Path 119" d="M314.923,277.952l-7.22-4.168c-.58-.335-.508-.919.161-1.306l7.155-4.13a2.508,2.508,0,0,1,2.261-.095l7.22,4.17c.58.335.506.918-.161,1.3l-7.155,4.131A2.522,2.522,0,0,1,314.923,277.952Z" transform="translate(-189.035 -209.753)" fill="#06033e"/>
            <path id="Path_120" data-name="Path 120" d="M324.935,283.732l-7.22-4.17c-.581-.333-.508-.918.161-1.3l7.155-4.13a2.508,2.508,0,0,1,2.261-.095l7.22,4.17c.58.335.506.918-.161,1.3l-7.155,4.131A2.517,2.517,0,0,1,324.935,283.732Z" transform="translate(-187.897 -209.096)" fill="#06033e"/>
            <path id="Path_121" data-name="Path 121" d="M334.946,289.513l-7.22-4.17c-.58-.335-.508-.918.161-1.3l7.155-4.13a2.508,2.508,0,0,1,2.261-.095l7.22,4.168c.58.335.508.92-.161,1.306l-7.155,4.13A2.517,2.517,0,0,1,334.946,289.513Z" transform="translate(-186.759 -208.439)" fill="#06033e"/>
            <path id="Path_122" data-name="Path 122" d="M344.959,295.292l-7.22-4.17c-.58-.335-.508-.918.161-1.3l7.155-4.131a2.513,2.513,0,0,1,2.261-.093l7.22,4.17c.58.333.506.918-.161,1.3l-7.155,4.13A2.508,2.508,0,0,1,344.959,295.292Z" transform="translate(-185.621 -207.782)" fill="#06033e"/>
            <path id="Path_123" data-name="Path 123" d="M354.971,301.073l-7.22-4.17c-.58-.335-.508-.918.161-1.3l7.155-4.131a2.513,2.513,0,0,1,2.261-.093l7.22,4.168c.58.335.506.919-.163,1.306l-7.153,4.13A2.513,2.513,0,0,1,354.971,301.073Z" transform="translate(-184.483 -207.125)" fill="#06033e"/>
            <path id="Path_124" data-name="Path 124" d="M364.983,306.854l-7.22-4.17c-.58-.335-.508-.918.161-1.3l7.155-4.131a2.512,2.512,0,0,1,2.261-.093l7.22,4.168c.58.335.506.92-.161,1.306l-7.155,4.13A2.518,2.518,0,0,1,364.983,306.854Z" transform="translate(-183.345 -206.468)" fill="#06033e"/>
            <path id="Path_125" data-name="Path 125" d="M375,312.634l-7.22-4.17c-.58-.335-.508-.919.161-1.3l7.155-4.131a2.513,2.513,0,0,1,2.261-.093l7.22,4.168c.58.335.508.92-.161,1.306l-7.155,4.13A2.513,2.513,0,0,1,375,312.634Z" transform="translate(-182.207 -205.811)" fill="#06033e"/>
            <path id="Path_126" data-name="Path 126" d="M279.615,246.312l-7.22-4.168c-.58-.335-.506-.919.163-1.306l7.153-4.131a2.511,2.511,0,0,1,2.263-.093l7.22,4.168c.58.335.506.919-.163,1.306l-7.153,4.131A2.52,2.52,0,0,1,279.615,246.312Z" transform="translate(-193.048 -213.349)" fill="#06033e"/>
            <path id="Path_127" data-name="Path 127" d="M269.652,240.56l-7.22-4.168c-.58-.335-.508-.919.161-1.306l7.155-4.131a2.512,2.512,0,0,1,2.261-.093l7.22,4.168c.58.335.506.92-.163,1.306l-7.155,4.131A2.509,2.509,0,0,1,269.652,240.56Z" transform="translate(-194.18 -214.002)" fill="#06033e"/>
            <path id="Path_128" data-name="Path 128" d="M259.689,234.809l-7.22-4.168c-.579-.335-.506-.92.163-1.306l7.155-4.131a2.508,2.508,0,0,1,2.261-.093l7.22,4.168c.579.335.506.92-.163,1.306l-7.155,4.131A2.513,2.513,0,0,1,259.689,234.809Z" transform="translate(-195.312 -214.656)" fill="#06033e"/>
            <path id="Path_129" data-name="Path 129" d="M249.728,229.057l-7.22-4.168c-.58-.335-.506-.92.163-1.306l7.155-4.131a2.508,2.508,0,0,1,2.261-.093l7.22,4.168c.58.335.508.92-.161,1.306l-7.155,4.131A2.521,2.521,0,0,1,249.728,229.057Z" transform="translate(-196.444 -215.31)" fill="#06033e"/>
            <path id="Path_130" data-name="Path 130" d="M259.971,222.859l-7.22-4.168c-.58-.335-.508-.92.161-1.306l2.365-1.365a2.511,2.511,0,0,1,2.263-.093l7.22,4.168c.58.335.506.92-.163,1.306l-2.365,1.365A2.512,2.512,0,0,1,259.971,222.859Z" transform="translate(-195.28 -215.7)" fill="#06033e"/>
            <path id="Path_131" data-name="Path 131" d="M272.973,230.366l-7.22-4.168c-.579-.335-.506-.92.163-1.306l2.365-1.365a2.508,2.508,0,0,1,2.261-.093l7.22,4.168c.579.335.506.92-.163,1.306l-2.365,1.365A2.512,2.512,0,0,1,272.973,230.366Z" transform="translate(-193.802 -214.847)" fill="#06033e"/>
            <path id="Path_132" data-name="Path 132" d="M282.893,236.094l-7.22-4.168c-.58-.335-.508-.92.161-1.306l2.365-1.365a2.516,2.516,0,0,1,2.263-.093l7.22,4.168c.58.335.506.92-.163,1.306L285.154,236A2.512,2.512,0,0,1,282.893,236.094Z" transform="translate(-192.675 -214.196)" fill="#06033e"/>
            <path id="Path_133" data-name="Path 133" d="M292.813,241.822l-7.22-4.168c-.58-.335-.506-.92.163-1.306l2.365-1.365a2.513,2.513,0,0,1,2.261-.093l7.22,4.168c.58.335.506.919-.161,1.306l-2.365,1.365A2.52,2.52,0,0,1,292.813,241.822Z" transform="translate(-191.547 -213.545)" fill="#06033e"/>
            <path id="Path_134" data-name="Path 134" d="M302.735,247.549l-7.22-4.168c-.58-.335-.506-.92.163-1.306l2.365-1.365a2.508,2.508,0,0,1,2.261-.093l7.22,4.168c.58.335.508.92-.161,1.306L305,247.456A2.517,2.517,0,0,1,302.735,247.549Z" transform="translate(-190.42 -212.894)" fill="#06033e"/>
            <path id="Path_135" data-name="Path 135" d="M358.121,279.526l-7.22-4.167c-.58-.336-.508-.919.161-1.307l2.366-1.365a2.513,2.513,0,0,1,2.261-.093l7.221,4.168c.58.336.508.919-.161,1.306l-2.366,1.367A2.515,2.515,0,0,1,358.121,279.526Z" transform="translate(-184.125 -209.259)" fill="#06033e"/>
            <path id="Path_136" data-name="Path 136" d="M368.042,285.255l-7.221-4.168c-.579-.335-.506-.919.163-1.306l2.365-1.365a2.513,2.513,0,0,1,2.261-.095l7.221,4.17c.58.335.506.92-.163,1.3l-2.365,1.367A2.522,2.522,0,0,1,368.042,285.255Z" transform="translate(-182.997 -208.608)" fill="#06033e"/>
            <path id="Path_137" data-name="Path 137" d="M377.962,290.981l-7.22-4.168c-.58-.335-.506-.92.161-1.306l2.366-1.365a2.508,2.508,0,0,1,2.261-.093l7.22,4.168c.58.335.508.918-.161,1.306l-2.366,1.365A2.512,2.512,0,0,1,377.962,290.981Z" transform="translate(-181.87 -207.957)" fill="#06033e"/>
            <path id="Path_138" data-name="Path 138" d="M387.883,296.709l-7.22-4.167c-.58-.336-.508-.92.161-1.307l2.366-1.365a2.513,2.513,0,0,1,2.261-.093l7.22,4.167c.581.336.508.92-.161,1.307l-2.366,1.365A2.512,2.512,0,0,1,387.883,296.709Z" transform="translate(-180.742 -207.306)" fill="#06033e"/>
            <path id="Path_139" data-name="Path 139" d="M289.626,252.092l-7.22-4.168c-.58-.335-.506-.92.163-1.306l7.153-4.131a2.511,2.511,0,0,1,2.262-.093l7.22,4.168c.58.335.506.92-.161,1.306L291.889,252A2.511,2.511,0,0,1,289.626,252.092Z" transform="translate(-191.91 -212.692)" fill="#06033e"/>
            <path id="Path_140" data-name="Path 140" d="M299.638,257.873l-7.22-4.167c-.58-.336-.506-.92.163-1.307l7.153-4.13a2.508,2.508,0,0,1,2.261-.093l7.221,4.168c.579.336.506.92-.163,1.306l-7.153,4.13A2.515,2.515,0,0,1,299.638,257.873Z" transform="translate(-190.772 -212.035)" fill="#06033e"/>
            <path id="Path_141" data-name="Path 141" d="M309.651,263.654l-7.22-4.168c-.58-.335-.508-.918.161-1.306l7.153-4.13a2.508,2.508,0,0,1,2.261-.093l7.221,4.168c.579.336.506.919-.163,1.306l-7.153,4.131A2.521,2.521,0,0,1,309.651,263.654Z" transform="translate(-189.634 -211.378)" fill="#06033e"/>
            <path id="Path_142" data-name="Path 142" d="M319.663,269.433l-7.221-4.168c-.579-.335-.506-.918.163-1.306l7.153-4.13a2.508,2.508,0,0,1,2.261-.093l7.221,4.168c.579.335.506.919-.163,1.3l-7.153,4.131A2.508,2.508,0,0,1,319.663,269.433Z" transform="translate(-188.496 -210.721)" fill="#06033e"/>
            <path id="Path_143" data-name="Path 143" d="M329.676,275.214l-7.221-4.168c-.579-.335-.506-.918.163-1.306l7.153-4.13a2.508,2.508,0,0,1,2.261-.093l7.22,4.168c.58.335.508.92-.161,1.3l-7.153,4.131A2.517,2.517,0,0,1,329.676,275.214Z" transform="translate(-187.358 -210.064)" fill="#06033e"/>
            <path id="Path_144" data-name="Path 144" d="M339.688,281l-7.221-4.168c-.579-.335-.506-.919.163-1.306l7.153-4.13a2.508,2.508,0,0,1,2.261-.093l7.221,4.168c.579.335.506.92-.163,1.3l-7.153,4.131A2.518,2.518,0,0,1,339.688,281Z" transform="translate(-186.22 -209.407)" fill="#06033e"/>
            <path id="Path_145" data-name="Path 145" d="M349.7,286.775l-7.22-4.168c-.58-.335-.508-.918.161-1.306l7.153-4.13a2.508,2.508,0,0,1,2.261-.095l7.22,4.17c.58.335.508.919-.161,1.3l-7.153,4.131A2.508,2.508,0,0,1,349.7,286.775Z" transform="translate(-185.082 -208.75)" fill="#06033e"/>
            <path id="Path_146" data-name="Path 146" d="M359.711,292.556l-7.22-4.168c-.58-.335-.508-.92.161-1.306l7.153-4.13a2.508,2.508,0,0,1,2.261-.095l7.221,4.17c.579.335.506.92-.163,1.3l-7.153,4.131A2.521,2.521,0,0,1,359.711,292.556Z" transform="translate(-183.944 -208.093)" fill="#06033e"/>
            <path id="Path_147" data-name="Path 147" d="M369.724,298.337l-7.221-4.168c-.579-.335-.506-.92.163-1.306l7.153-4.13a2.508,2.508,0,0,1,2.261-.095l7.221,4.17c.579.335.506.918-.163,1.3l-7.153,4.131A2.522,2.522,0,0,1,369.724,298.337Z" transform="translate(-182.806 -207.436)" fill="#06033e"/>
            <path id="Path_148" data-name="Path 148" d="M233.819,253.633l-21.264-12.278c-.579-.335-.506-.919.163-1.306l7.155-4.131a2.512,2.512,0,0,1,2.261-.093L243.4,248.1c.58.335.506.919-.163,1.306l-7.153,4.131A2.507,2.507,0,0,1,233.819,253.633Z" transform="translate(-199.849 -213.438)" fill="#06033e"/>
            <path id="Path_149" data-name="Path 149" d="M356.819,324.649l-21.263-12.276c-.58-.335-.508-.919.161-1.306l7.153-4.13a2.508,2.508,0,0,1,2.261-.095L366.4,319.118c.58.336.508.919-.161,1.307l-7.155,4.13A2.517,2.517,0,0,1,356.819,324.649Z" transform="translate(-185.869 -205.367)" fill="#06033e"/>
            <path id="Path_150" data-name="Path 150" d="M315.347,313.552l-7.22-4.168c-.58-.336-.508-.92.161-1.306l8.523-4.92a2.512,2.512,0,0,1,2.261-.093l7.22,4.167c.58.336.506.919-.161,1.307l-8.523,4.919A2.5,2.5,0,0,1,315.347,313.552Z" transform="translate(-188.986 -205.796)" fill="#06033e"/>
            <path id="Path_151" data-name="Path 151" d="M243.081,271.83l-11.546-6.668c-.58-.335-.508-.92.161-1.3l8.523-4.922a2.517,2.517,0,0,1,2.261-.093l11.546,6.666c.58.336.506.92-.163,1.306l-8.521,4.92A2.512,2.512,0,0,1,243.081,271.83Z" transform="translate(-197.692 -210.822)" fill="#06033e"/>
            <path id="Path_152" data-name="Path 152" d="M306.141,308.239l-11.546-6.668c-.58-.335-.506-.919.163-1.306l8.523-4.92a2.512,2.512,0,0,1,2.261-.093l11.546,6.668c.581.335.508.918-.161,1.306l-8.523,4.919A2.52,2.52,0,0,1,306.141,308.239Z" transform="translate(-190.524 -206.684)" fill="#06033e"/>
            <path id="Path_153" data-name="Path 153" d="M257.525,280.17,245.979,273.5c-.579-.336-.506-.919.163-1.307l8.521-4.919a2.511,2.511,0,0,1,2.263-.093l11.546,6.668c.579.335.506.918-.163,1.3l-8.521,4.92A2.52,2.52,0,0,1,257.525,280.17Z" transform="translate(-196.05 -209.874)" fill="#06033e"/>
            <path id="Path_154" data-name="Path 154" d="M256.956,267.2l50.2,28.985a.688.688,0,0,1,0,1.3l-8.69,5.018a2.5,2.5,0,0,1-2.255,0l-50.2-28.985Z" transform="translate(-196.002 -209.847)" fill="#06033e"/>
            <path id="Path_155" data-name="Path 155" d="M343.144,322.959l8.043,4.643c.474.275.415.754-.133,1.071l-3.486,2.012a2.067,2.067,0,0,1-1.854.078l-8.043-4.645c-.475-.275-.416-.754.133-1.071l3.486-2.012A2.062,2.062,0,0,1,343.144,322.959Z" transform="translate(-185.62 -203.53)" fill="#06033e"/>
            <path id="Path_156" data-name="Path 156" d="M333.048,317.13l8.043,4.643c.474.275.415.754-.133,1.072l-3.486,2.012a2.066,2.066,0,0,1-1.854.076l-8.043-4.643c-.475-.274-.416-.754.133-1.071l3.486-2.012A2.062,2.062,0,0,1,333.048,317.13Z" transform="translate(-186.768 -204.193)" fill="#06033e"/>
            <path id="Path_157" data-name="Path 157" d="M323.037,311.35l8.043,4.643c.474.275.415.754-.133,1.072l-3.486,2.012a2.066,2.066,0,0,1-1.854.076l-8.043-4.642c-.475-.275-.416-.755.133-1.072l3.486-2.012A2.057,2.057,0,0,1,323.037,311.35Z" transform="translate(-187.906 -204.85)" fill="#06033e"/>
            <path id="Path_158" data-name="Path 158" d="M338.578,313.939l8.043,4.642c.475.275.415.755-.133,1.072L343,321.665a2.061,2.061,0,0,1-1.854.077l-8.043-4.643c-.475-.275-.415-.754.133-1.072l3.486-2.012A2.061,2.061,0,0,1,338.578,313.939Z" transform="translate(-186.139 -204.555)" fill="#06033e"/>
          </g>
          <path id="Path_159" data-name="Path 159" d="M466.124,332.257,253.108,209.272a9.435,9.435,0,0,1-3.9-10.525L297.377,42.34c1.193-3.879,4.874-5.456,8.225-3.521L518.618,161.8a9.436,9.436,0,0,1,3.9,10.525L474.351,328.736C473.157,332.614,469.475,334.191,466.124,332.257Z" transform="translate(-66.149 -36.723)" fill="url(#radial-gradient-4)"/>
          <path id="Path_160" data-name="Path 160" d="M463.648,326.2,257.035,206.816a9.025,9.025,0,0,1-3.736-10.072L299.354,47.219c1.142-3.712,4.666-5.221,7.871-3.37L513.839,163.236a9.026,9.026,0,0,1,3.736,10.072L471.519,322.831C470.377,326.546,466.853,328.055,463.648,326.2Z" transform="translate(-65.681 -36.147)" fill="url(#linear-gradient-5)"/>
          <path id="Path_161" data-name="Path 161" d="M463.648,326.2,257.035,206.816a9.025,9.025,0,0,1-3.736-10.072L299.354,47.219c1.142-3.712,4.666-5.221,7.871-3.37L513.839,163.236a9.026,9.026,0,0,1,3.736,10.072L471.519,322.831C470.377,326.546,466.853,328.055,463.648,326.2Z" transform="translate(-65.681 -36.147)" fill="#06033e" opacity="0.4"/>
          <path id="Path_162" data-name="Path 162" d="M463.648,326.2,257.035,206.816a9.025,9.025,0,0,1-3.736-10.072L299.354,47.219c1.142-3.712,4.666-5.221,7.871-3.37L513.839,163.236a9.026,9.026,0,0,1,3.736,10.072L471.519,322.831C470.377,326.546,466.853,328.055,463.648,326.2Z" transform="translate(-65.681 -36.147)" fill="#06033e" opacity="0.4"/>
          <path id="Path_163" data-name="Path 163" d="M446.736,275.995,306.872,195.244a6.2,6.2,0,0,1-2.565-6.91l31.631-102.7c.783-2.547,3.2-3.582,5.4-2.313L481.2,164.077a6.192,6.192,0,0,1,2.563,6.91l-31.629,102.7C451.356,276.229,448.938,277.264,446.736,275.995Z" transform="translate(-59.871 -31.632)" fill="#06033e" opacity="0.5"/>
          <g id="Group_3" data-name="Group 3" transform="translate(225.294 53.625)">
            <path id="Path_164" data-name="Path 164" d="M429.77,278.22,289.9,197.468a6.192,6.192,0,0,1-2.563-6.91l31.631-102.7c.783-2.547,3.2-3.582,5.4-2.313L464.237,166.3a6.193,6.193,0,0,1,2.563,6.91l-31.629,102.7C434.387,278.456,431.969,279.49,429.77,278.22Z" transform="translate(-287.094 -85.005)" fill="url(#radial-gradient-5)"/>
          </g>
          <g id="Group_4" data-name="Group 4" transform="translate(225.294 53.625)" opacity="0.5">
            <path id="Path_165" data-name="Path 165" d="M429.77,278.22,289.9,197.468a6.192,6.192,0,0,1-2.563-6.91l31.631-102.7c.783-2.547,3.2-3.582,5.4-2.313L464.237,166.3a6.193,6.193,0,0,1,2.563,6.91l-31.629,102.7C434.387,278.456,431.969,279.49,429.77,278.22Z" transform="translate(-287.094 -85.005)" fill="#06033e"/>
          </g>
          <path id="Path_166" data-name="Path 166" d="M460.833,166.3,320.967,85.547a3.485,3.485,0,0,0-3.936.135,3.77,3.77,0,0,1,2.02.517l139.866,80.753a6.192,6.192,0,0,1,2.563,6.91l-31.629,102.7a4.225,4.225,0,0,1-1.466,2.178,3.7,3.7,0,0,0,3.382-2.828l31.629-102.7A6.2,6.2,0,0,0,460.833,166.3Z" transform="translate(-58.397 -31.38)" fill="#fff"/>
          <path id="Path_167" data-name="Path 167" d="M263.29,339.892a10.532,10.532,0,0,1-5.182-1.214l-56.038-32.353a4.049,4.049,0,0,1-2.3-3.453c0-1.587,1.127-3.149,3.09-4.284L231.7,281.933c3.524-2.033,8.7-2.233,11.782-.455l56.037,32.353a4.054,4.054,0,0,1,2.3,3.453c0,1.587-1.125,3.149-3.09,4.284l-28.845,16.655A13.509,13.509,0,0,1,263.29,339.892ZM238.328,281.9a12,12,0,0,0-5.815,1.432l-28.845,16.655c-1.45.835-2.283,1.888-2.283,2.88a2.557,2.557,0,0,0,1.5,2.051l56.038,32.356c2.542,1.463,7.193,1.259,10.161-.458l28.845-16.652c1.45-.838,2.282-1.888,2.282-2.883a2.563,2.563,0,0,0-1.494-2.051l-56.037-32.353A8.923,8.923,0,0,0,238.328,281.9Z" transform="translate(-71.725 -9.187)" fill="#06033e" opacity="0.4"/>
        </g>
        <g id="Group_7" data-name="Group 7" transform="translate(340.18 128.708)">
          <g id="Group_6" data-name="Group 6" transform="translate(9.271 6.906)">
            <path id="Path_168" data-name="Path 168" d="M352.144,134.739l-8.647-4.993a2.255,2.255,0,0,1-.959-2.486,1.28,1.28,0,0,1,1.944-.808l8.647,4.993a2.253,2.253,0,0,1,.961,2.486A1.282,1.282,0,0,1,352.144,134.739Z" transform="translate(-310.529 -121.264)" fill="#fff"/>
            <path id="Path_169" data-name="Path 169" d="M371.058,145.66l-12.75-7.362a2.252,2.252,0,0,1-.959-2.486,1.279,1.279,0,0,1,1.944-.808l12.75,7.362a2.255,2.255,0,0,1,.961,2.486A1.282,1.282,0,0,1,371.058,145.66Z" transform="translate(-308.846 -120.292)" fill="#fff"/>
            <path id="Path_170" data-name="Path 170" d="M336.485,169.308l-8.646-4.993a2.253,2.253,0,0,1-.961-2.486,1.28,1.28,0,0,1,1.944-.809l8.647,4.993a2.253,2.253,0,0,1,.961,2.486A1.282,1.282,0,0,1,336.485,169.308Z" transform="translate(-312.309 -117.335)" fill="#fff"/>
            <path id="Path_171" data-name="Path 171" d="M353.391,179.068l-12.749-7.361a2.255,2.255,0,0,1-.961-2.488,1.28,1.28,0,0,1,1.944-.808l12.749,7.362a2.253,2.253,0,0,1,.961,2.486A1.279,1.279,0,0,1,353.391,179.068Z" transform="translate(-310.854 -116.495)" fill="#fff"/>
            <path id="Path_172" data-name="Path 172" d="M328.554,128.388l-5.4-3.118a2.254,2.254,0,0,1-.96-2.486,1.28,1.28,0,0,1,1.944-.808l5.4,3.118a2.255,2.255,0,0,1,.961,2.486A1.282,1.282,0,0,1,328.554,128.388Z" transform="translate(-312.841 -121.773)" fill="#fff"/>
            <path id="Path_173" data-name="Path 173" d="M344.282,144.736l-16.5-9.53a2.253,2.253,0,0,1-.961-2.486,1.28,1.28,0,0,1,1.944-.808l16.5,9.53a2.254,2.254,0,0,1,.96,2.486A1.279,1.279,0,0,1,344.282,144.736Z" transform="translate(-312.316 -120.643)" fill="#fff"/>
            <path id="Path_174" data-name="Path 174" d="M329.479,150.727l-5.4-3.118a2.253,2.253,0,0,1-.961-2.486,1.28,1.28,0,0,1,1.944-.808l5.4,3.118a2.253,2.253,0,0,1,.961,2.486A1.28,1.28,0,0,1,329.479,150.727Z" transform="translate(-312.736 -119.234)" fill="#fff"/>
            <path id="Path_175" data-name="Path 175" d="M355.35,194.736l-14.428-8.329a2.253,2.253,0,0,1-.96-2.486,1.281,1.281,0,0,1,1.944-.81l14.428,8.33a2.252,2.252,0,0,1,.96,2.486A1.28,1.28,0,0,1,355.35,194.736Z" transform="translate(-310.821 -114.824)" fill="#fff"/>
            <path id="Path_176" data-name="Path 176" d="M323.846,162.01l-3.466-2a2.253,2.253,0,0,1-.961-2.486,1.28,1.28,0,0,1,1.944-.808l3.466,2a2.253,2.253,0,0,1,.961,2.486A1.279,1.279,0,0,1,323.846,162.01Z" transform="translate(-313.157 -117.825)" fill="#fff"/>
            <path id="Path_177" data-name="Path 177" d="M320.985,174.9l-4.306-2.486a2.255,2.255,0,0,1-.959-2.486h0a1.28,1.28,0,0,1,1.944-.808l4.306,2.486a2.253,2.253,0,0,1,.961,2.486A1.282,1.282,0,0,1,320.985,174.9Z" transform="translate(-313.577 -116.415)" fill="#fff"/>
            <path id="Path_178" data-name="Path 178" d="M336.747,184l-11.353-6.555a2.255,2.255,0,0,1-.961-2.486,1.28,1.28,0,0,1,1.944-.808L337.73,180.7a2.255,2.255,0,0,1,.961,2.486A1.281,1.281,0,0,1,336.747,184Z" transform="translate(-312.586 -115.843)" fill="#fff"/>
            <path id="Path_179" data-name="Path 179" d="M322.992,183.322l-8.163-4.713a2.255,2.255,0,0,1-.961-2.486,1.28,1.28,0,0,1,1.944-.808l8.163,4.713a2.252,2.252,0,0,1,.959,2.486A1.279,1.279,0,0,1,322.992,183.322Z" transform="translate(-313.787 -115.71)" fill="#fff"/>
            <path id="Path_180" data-name="Path 180" d="M365.527,200.642l-5.242-3.027a2.253,2.253,0,0,1-.961-2.486,1.28,1.28,0,0,1,1.944-.808l5.242,3.027a2.256,2.256,0,0,1,.961,2.486A1.279,1.279,0,0,1,365.527,200.642Z" transform="translate(-308.621 -113.55)" fill="#fff"/>
            <path id="Path_181" data-name="Path 181" d="M348.443,161.676l-14.426-8.33a2.253,2.253,0,0,1-.961-2.486,1.28,1.28,0,0,1,1.944-.808l14.426,8.33a2.252,2.252,0,0,1,.961,2.486A1.281,1.281,0,0,1,348.443,161.676Z" transform="translate(-311.607 -118.582)" fill="#fff"/>
          </g>
          <path id="Path_182" data-name="Path 182" d="M351.074,155.926l-25.145-14.518a2.255,2.255,0,0,1-.96-2.486,1.279,1.279,0,0,1,1.944-.808l25.145,14.518a2.253,2.253,0,0,1,.961,2.486A1.282,1.282,0,0,1,351.074,155.926Z" transform="translate(-303.254 -113.033)" fill="#e8975b"/>
          <path id="Path_183" data-name="Path 183" d="M336.656,162.139l-14.428-8.329a2.252,2.252,0,0,1-.96-2.486,1.279,1.279,0,0,1,1.944-.808l14.428,8.329a2.252,2.252,0,0,1,.959,2.486A1.28,1.28,0,0,1,336.656,162.139Z" transform="translate(-303.675 -111.623)" fill="#e8975b"/>
          <path id="Path_184" data-name="Path 184" d="M357.332,166.807l-5.242-3.027a2.255,2.255,0,0,1-.961-2.486,1.28,1.28,0,0,1,1.944-.808l5.242,3.027a2.255,2.255,0,0,1,.961,2.486A1.279,1.279,0,0,1,357.332,166.807Z" transform="translate(-300.281 -110.49)" fill="#e8975b"/>
          <path id="Path_185" data-name="Path 185" d="M407.846,166.9,376.8,148.976a2.253,2.253,0,0,1-.961-2.486,1.28,1.28,0,0,1,1.944-.808L408.83,163.6a2.254,2.254,0,0,1,.959,2.486A1.278,1.278,0,0,1,407.846,166.9Z" transform="translate(-297.472 -112.173)" fill="#e8975b"/>
          <path id="Path_186" data-name="Path 186" d="M335.873,176.222,318.53,166.21a2.255,2.255,0,0,1-.961-2.486,1.28,1.28,0,0,1,1.944-.808l17.343,10.012a2.256,2.256,0,0,1,.961,2.486A1.28,1.28,0,0,1,335.873,176.222Z" transform="translate(-304.096 -110.214)" fill="#f8359e"/>
          <path id="Path_187" data-name="Path 187" d="M337.752,126.43,325,119.068a2.255,2.255,0,0,1-.961-2.486,1.28,1.28,0,0,1,1.944-.808l12.75,7.362a2.255,2.255,0,0,1,.959,2.486A1.279,1.279,0,0,1,337.752,126.43Z" transform="translate(-303.36 -115.572)" fill="#f8359e"/>
          <path id="Path_188" data-name="Path 188" d="M321.272,189.6,306.5,181.072a2.254,2.254,0,0,1-.959-2.486,1.28,1.28,0,0,1,1.944-.808l14.768,8.526a2.253,2.253,0,0,1,.96,2.486A1.28,1.28,0,0,1,321.272,189.6Z" transform="translate(-305.462 -108.525)" fill="#e8975b"/>
        </g>
        <g id="Group_8" data-name="Group 8" transform="translate(446.955 161.264)">
          <path id="Path_189" data-name="Path 189" d="M408.422,151.011l-6.321-3.65a1.648,1.648,0,0,1-.7-1.817.935.935,0,0,1,1.42-.591l6.321,3.648a1.652,1.652,0,0,1,.7,1.818A.937.937,0,0,1,408.422,151.011Z" transform="translate(-401.339 -144.806)" fill="#fff"/>
          <path id="Path_190" data-name="Path 190" d="M419.249,157.26l-6.321-3.648a1.652,1.652,0,0,1-.7-1.818.936.936,0,0,1,1.422-.591l6.321,3.648a1.652,1.652,0,0,1,.7,1.818A.936.936,0,0,1,419.249,157.26Z" transform="translate(-400.109 -144.096)" fill="#fff"/>
          <path id="Path_191" data-name="Path 191" d="M430.073,163.511l-6.32-3.65a1.649,1.649,0,0,1-.7-1.817.934.934,0,0,1,1.42-.591l6.321,3.648a1.651,1.651,0,0,1,.7,1.817A.935.935,0,0,1,430.073,163.511Z" transform="translate(-398.879 -143.385)" fill="#fff"/>
          <path id="Path_192" data-name="Path 192" d="M434.77,166.227l-.191-.114a1.652,1.652,0,0,1-.7-1.818.936.936,0,0,1,1.421-.591l.191.114a1.649,1.649,0,0,1,.7,1.818A.935.935,0,0,1,434.77,166.227Z" transform="translate(-397.648 -142.675)" fill="#f8359e"/>
        </g>
        <path id="Path_193" data-name="Path 193" d="M147.55,239.029a23.121,23.121,0,0,1-11.569-3.09l-42.34-24.446a5.862,5.862,0,0,1,0-10.155l42.337-24.445a23.2,23.2,0,0,1,23.137,0l42.339,24.446a5.861,5.861,0,0,1,0,10.155l-42.337,24.445A23.1,23.1,0,0,1,147.55,239.029Zm-10.192-5.476a20.451,20.451,0,0,0,20.385,0l42.337-24.445a3.107,3.107,0,0,0,0-5.381l-42.34-24.446a20.444,20.444,0,0,0-20.385,0L95.016,203.726a3.107,3.107,0,0,0,0,5.381Z" transform="translate(10.31 19.754)" fill="url(#linear-gradient-2)"/>
        <g id="Group_11" data-name="Group 11" transform="translate(115.432 73.695)">
          <path id="Path_194" data-name="Path 194" d="M165.088,217.191c-11.355,6.557-29.769,6.557-41.128,0s-11.357-17.188,0-23.746,29.769-6.556,41.128,0S176.447,210.634,165.088,217.191Z" transform="translate(-102.311 -52.268)" fill="#020230" opacity="0.6"/>
          <path id="Path_195" data-name="Path 195" d="M188.721,96.15H105.888l7.7,89.684c0,4.981,3.292,9.962,9.875,13.762,13.166,7.6,34.512,7.6,47.677,0,6.583-3.8,9.873-8.782,9.873-13.763Z" transform="translate(-103.397 -62.767)" fill="url(#radial-gradient-6)"/>
          <path id="Path_196" data-name="Path 196" d="M188.721,96.15H105.888l1.267,14.755a32.232,32.232,0,0,0,7.677,6.906c15.829,10.5,41.945,12.524,59.767,4.962l-2.756,65.595a12.879,12.879,0,0,1-2.96,7.821c-2.683,3.158-7.852,6.873-17.789,8.974,7.325-.475,14.434-2.322,20.05-5.564,6.583-3.8,9.873-8.782,9.873-13.763l6.179-71.925Z" transform="translate(-103.397 -62.767)" fill="#06033e" opacity="0.4"/>
          <path id="Path_197" data-name="Path 197" d="M176.591,115.5c-16.174,9.339-42.4,9.339-58.572,0s-16.175-24.477,0-33.816,42.4-9.339,58.572,0S192.764,106.161,176.591,115.5Z" transform="translate(-103.397 -65.208)" fill="#06033e" opacity="0.4"/>
          <path id="Path_198" data-name="Path 198" d="M171.942,105.246c-13.93,8.043-36.518,8.043-50.449,0s-13.932-21.084,0-29.127,36.518-8.043,50.449,0S185.873,97.2,171.942,105.246Z" transform="translate(-102.811 -65.729)" fill="#06033e" opacity="0.4"/>
          <path id="Path_199" data-name="Path 199" d="M191.427,98.419l0,.006-.007-.073c0-.041-.009-.083-.012-.123l-.8-8.03-.034.09c-.355-6.077-4.541-12.094-12.577-16.735-16.816-9.709-44.08-9.709-60.895,0-8.239,4.756-12.43,10.962-12.595,17.2l-.01-.021-.758,7.15c-.021.185-.044.372-.059.557l-.012.118.007,0c-.455,6.811,3.814,13.71,12.823,18.91,17.151,9.9,44.955,9.9,62.106,0C187.676,112.226,191.945,105.274,191.427,98.419Z" transform="translate(-103.651 -66.163)" fill="url(#linear-gradient-7)"/>
          <path id="Path_200" data-name="Path 200" d="M171.942,105.246c-13.93,8.043-36.518,8.043-50.449,0s-13.932-21.084,0-29.127,36.518-8.043,50.449,0S185.873,97.2,171.942,105.246Z" transform="translate(-102.811 -65.729)" fill="url(#linear-gradient-8)"/>
          <path id="Path_201" data-name="Path 201" d="M170.422,105.246c-13.93,8.043-36.518,8.043-50.449,0s-13.932-21.084,0-29.127,36.518-8.043,50.449,0S184.354,97.2,170.422,105.246Z" transform="translate(-102.983 -65.729)" fill="url(#linear-gradient-8)"/>
          <path id="Path_202" data-name="Path 202" d="M125.723,79.188c13.93-8.043,36.518-8.043,50.449,0,.178.1.326.215.5.318a28.51,28.51,0,0,0-4.731-3.386c-13.932-8.043-36.518-8.045-50.449,0-13.754,7.941-13.9,20.743-.5,28.808C112.043,96.949,113.61,86.181,125.723,79.188Z" transform="translate(-102.809 -65.729)" fill="#06033e" opacity="0.4"/>
          <path id="Path_203" data-name="Path 203" d="M121.492,79.694c13.932-8.043,36.518-8.043,50.449,0,6.177,3.567,9.61,8.116,10.309,12.777.877-5.849-2.556-11.874-10.309-16.35-13.932-8.043-36.518-8.045-50.449,0-7.753,4.476-11.185,10.5-10.309,16.35C111.883,87.81,115.315,83.261,121.492,79.694Z" transform="translate(-102.81 -65.729)" fill="url(#linear-gradient-10)"/>
          <path id="Path_204" data-name="Path 204" d="M178.2,73.754c-16.793-9.893-44.156-10.134-61.119-.537s-17.1,25.394-.309,35.286,44.154,10.134,61.117.539S194.993,83.647,178.2,73.754Zm-5.49,31.937a46.532,46.532,0,0,1-16.221,5.347l-.649-2.128a2.042,2.042,0,0,0-1.952-1.447H141.081a2.041,2.041,0,0,0-1.952,1.447l-.647,2.128a46.471,46.471,0,0,1-16.221-5.347c-13.932-8.043-13.932-21.084,0-29.127s36.518-8.043,50.449,0S186.643,97.648,172.712,105.691Z" transform="translate(-103.581 -66.174)" fill="url(#radial-gradient-7)"/>
          <g id="Group_9" data-name="Group 9" transform="translate(0.701 2.833)">
            <path id="Path_205" data-name="Path 205" d="M171.941,74.75c-13.932-8.043-36.518-8.043-50.449,0-7.3,4.215-10.769,9.8-10.417,15.325.32-5.014,3.788-9.972,10.417-13.8,13.932-8.043,36.518-8.043,50.449,0,6.631,3.828,10.1,8.786,10.418,13.8C182.71,84.554,179.244,78.966,171.941,74.75Z" transform="translate(-103.511 -68.718)" fill="#fff"/>
            <path id="Path_206" data-name="Path 206" d="M177.89,105.069c-16.963,9.595-44.326,9.354-61.117-.539-7.99-4.709-12.139-10.753-12.473-16.831-.332,6.582,3.814,13.254,12.473,18.355,16.791,9.893,44.156,10.134,61.117.539,8.89-5.028,13.152-11.763,12.783-18.457C190.362,94.319,186.1,100.423,177.89,105.069Z" transform="translate(-104.281 -66.561)" fill="#fff"/>
          </g>
          <path id="Path_207" data-name="Path 207" d="M147.394,107.666h-7.657a.966.966,0,0,1-.967-.967v-.135a.968.968,0,0,1,.967-.968h7.657a.969.969,0,0,1,.968.968v.135A.968.968,0,0,1,147.394,107.666Z" transform="translate(-99.659 -61.694)" fill="#0c0a78"/>
          <path id="Path_208" data-name="Path 208" d="M147.394,105.6h-7.657a.967.967,0,0,0-.967.968v.135a.938.938,0,0,0,.052.258.955.955,0,0,1,.915-.709h7.657a.957.957,0,0,1,.917.709.936.936,0,0,0,.052-.258v-.135A.969.969,0,0,0,147.394,105.6Z" transform="translate(-99.659 -61.694)" fill="url(#linear-gradient-11)"/>
          <g id="Group_10" data-name="Group 10" transform="translate(29.067 96.748)">
            <path id="Path_209" data-name="Path 209" d="M145.458,169.156a6.617,6.617,0,1,1-12.79-3.4c.939-3.533,4.27-4.532,7.8-3.594S146.4,165.625,145.458,169.156Z" transform="translate(-129.445 -152.05)" fill="#e8975b"/>
            <path id="Path_210" data-name="Path 210" d="M149.324,162.718a2.93,2.93,0,1,1-4.1-4.19c1.333-1.3,3.865-1.944,5-.786S150.656,161.417,149.324,162.718Z" transform="translate(-128.101 -152.584)" fill="#e8975b"/>
            <path id="Path_211" data-name="Path 211" d="M143.188,157.647a2.931,2.931,0,1,1-5.77-1.026c.327-1.833,2.014-3.829,3.607-3.545S143.514,155.812,143.188,157.647Z" transform="translate(-128.886 -153.049)" fill="#e8975b"/>
            <path id="Path_212" data-name="Path 212" d="M135.523,156.706a2.93,2.93,0,1,1-5.419,2.228c-.709-1.722-.355-4.312,1.142-4.928S134.813,154.983,135.523,156.706Z" transform="translate(-129.751 -152.955)" fill="#e8975b"/>
          </g>
        </g>
        <path id="Path_213" data-name="Path 213" d="M146.722,115.749s23.158-7.76,13.782-34.37-27.634-34.719-20.28-56.006c0,0-11.526,17.232-.755,40.547S152.6,86.557,152.476,97.709a20.118,20.118,0,0,1-10.852,18.041Z" transform="translate(15.329 2.884)" fill="#fff" opacity="0.5"/>
        <path id="Path_214" data-name="Path 214" d="M147.4,31.958S144.988,16.04,159.918,0c0,0-13.2,29.491-8.884,44.051C151.033,44.051,147.539,34.8,147.4,31.958Z" transform="translate(16.737)" fill="#fff" opacity="0.5"/>
      </g>
    </g>
  </g>
</svg>
