<?xml version="1.0" standalone="no"?>
<!DOCTYPE svg PUBLIC "-//W3C//DTD SVG 20010904//EN"
 "http://www.w3.org/TR/2001/REC-SVG-20010904/DTD/svg10.dtd">
<svg version="1.0" xmlns="http://www.w3.org/2000/svg"
 width="629.000000pt" height="573.000000pt" viewBox="0 0 629.000000 573.000000"
 preserveAspectRatio="xMidYMid meet">
<metadata>
Created by potrace 1.16, written by Peter Selinger 2001-2019
</metadata>
<g transform="translate(0.000000,573.000000) scale(0.100000,-0.100000)"
fill="#0E3A77" stroke="none">
<path d="M1015 5703 c-227 -30 -389 -106 -521 -246 -129 -135 -192 -303 -201
-534 -4 -98 -9 -133 -18 -133 -7 0 -55 8 -106 19 -162 32 -169 33 -169 19 0
-7 89 -76 198 -152 108 -76 188 -136 177 -131 -91 35 -248 85 -252 81 -3 -2
34 -47 81 -100 l86 -95 0 -1888 c0 -2055 -3 -1947 57 -2087 99 -233 321 -381
638 -425 44 -6 876 -9 2230 -8 2434 3 2207 -5 2390 81 110 52 190 116 250 200
98 137 135 270 135 484 0 107 3 142 13 142 6 0 68 -11 137 -25 69 -13 131 -25
138 -25 37 0 -8 38 -184 159 -107 73 -193 135 -191 137 2 2 59 -19 126 -47 68
-27 125 -48 128 -45 3 3 2 13 -2 23 -5 10 -7 21 -7 26 1 4 -2 6 -7 5 -6 -2
-42 35 -80 82 l-71 84 -2 1886 -3 1885 -23 74 c-90 290 -253 452 -531 530
l-96 26 -2145 1 c-1180 1 -2158 -1 -2175 -3z m2712 -1090 c-3 -16 -91 -329
-196 -698 -104 -368 -246 -872 -316 -1118 -132 -471 -162 -562 -240 -717 -127
-252 -220 -348 -447 -455 -369 -174 -832 -163 -1105 27 -169 118 -263 246
-317 430 -31 107 -49 266 -41 361 9 110 26 207 35 207 11 0 471 -158 477 -163
2 -2 5 -56 6 -118 3 -165 32 -211 172 -276 53 -24 75 -28 183 -31 143 -5 221
7 309 49 125 59 220 159 290 305 19 39 58 159 87 265 30 107 156 568 281 1024
125 457 233 854 242 883 l14 52 286 0 286 0 -6 -27z m553 -517 c0 -22 -111
-468 -370 -1484 -133 -524 -239 -956 -236 -959 4 -4 306 -6 671 -4 639 3 665
2 665 -16 -1 -10 -29 -124 -63 -253 l-63 -235 -967 -3 c-772 -2 -966 0 -962
10 2 7 182 670 400 1473 217 803 397 1466 400 1473 7 19 525 18 525 -2z"/>
</g>
</svg>
