<!DOCTYPE svg PUBLIC "-//W3C//DTD SVG 20010904//EN" "http://www.w3.org/TR/2001/REC-SVG-20010904/DTD/svg10.dtd">
<svg version="1.0" xmlns="http://www.w3.org/2000/svg" width="1200px" height="666px" viewBox="0 0 12000 6660" preserveAspectRatio="xMidYMid meet">
<g id="layer101" fill="#413f56" stroke="none">
<path d="M1215 6638 c-22 -6 -42 -14 -45 -17 -3 -4 -29 -12 -58 -19 -29 -7 -60 -19 -69 -28 -9 -8 -22 -13 -30 -10 -8 3 -11 1 -8 -4 3 -6 -3 -10 -14 -10 -11 0 -26 -7 -35 -15 -8 -8 -20 -15 -26 -15 -14 0 -59 -30 -114 -77 -21 -18 -43 -30 -49 -26 -6 3 -7 2 -4 -4 7 -12 -30 -46 -43 -38 -5 3 -12 0 -16 -6 -5 -8 -3 -9 7 -4 8 5 3 -3 -11 -17 -35 -35 -60 -67 -60 -77 0 -5 -8 -15 -17 -22 -15 -12 -16 -12 -8 1 7 12 6 13 -6 2 -8 -7 -14 -16 -14 -20 0 -13 -68 -112 -77 -112 -4 0 -8 -5 -8 -10 0 -14 -41 -72 -57 -83 -7 -4 -13 -17 -13 -28 0 -11 -4 -18 -8 -15 -5 3 -8 -5 -8 -17 1 -15 -5 -22 -16 -21 -11 1 -14 -4 -11 -14 5 -11 3 -13 -7 -7 -8 5 -11 4 -6 -3 8 -14 -21 -85 -32 -78 -5 3 -23 -37 -42 -87 -18 -51 -41 -105 -51 -122 -9 -16 -24 -52 -32 -80 -8 -27 -23 -64 -32 -82 -9 -18 -26 -77 -39 -133 -12 -55 -25 -98 -28 -95 -3 3 -3 -6 -1 -20 3 -14 1 -25 -3 -25 -5 0 -10 -23 -12 -52 -1 -29 -6 -54 -11 -57 -9 -7 -41 -216 -41 -273 0 -20 -5 -40 -11 -43 -6 -4 -9 -34 -8 -71 1 -35 -1 -67 -4 -71 -9 -8 -9 -487 -1 -496 3 -3 7 -36 9 -74 1 -37 12 -142 24 -233 12 -91 20 -173 17 -182 -2 -10 2 -18 9 -18 14 0 31 -102 20 -120 -3 -5 -1 -10 6 -10 7 0 9 -10 7 -25 -3 -13 -2 -23 1 -21 3 3 19 -63 35 -145 16 -82 32 -149 36 -149 5 0 18 -45 30 -100 13 -55 27 -100 33 -100 5 0 7 -9 4 -20 -3 -11 -1 -20 5 -20 6 0 8 -9 5 -20 -3 -12 -1 -18 5 -14 7 5 9 -2 6 -19 -3 -16 0 -31 8 -38 8 -6 14 -16 14 -22 0 -24 43 -147 51 -147 5 0 9 -8 9 -18 0 -10 4 -22 9 -27 4 -6 14 -31 21 -57 7 -27 17 -48 22 -48 6 0 8 -7 4 -15 -3 -8 -1 -15 5 -15 6 0 10 -8 9 -17 -3 -24 10 -63 20 -63 5 0 14 -17 20 -37 13 -43 32 -86 41 -93 14 -10 39 -83 32 -93 -3 -5 -1 -7 4 -4 10 6 25 -15 28 -38 3 -25 17 -55 26 -55 8 0 25 -30 34 -60 7 -24 33 -67 45 -77 8 -6 12 -15 8 -18 -4 -4 0 -14 8 -22 8 -8 11 -19 8 -25 -4 -7 -2 -8 5 -4 7 5 13 -3 17 -23 4 -17 10 -31 15 -31 5 0 9 -7 9 -15 0 -8 9 -23 20 -32 11 -10 20 -23 20 -30 0 -7 5 -13 10 -13 6 0 10 -7 10 -15 0 -8 5 -15 11 -15 5 0 8 -4 5 -9 -3 -5 1 -12 10 -15 9 -3 14 -13 11 -20 -3 -8 1 -17 10 -20 8 -4 13 -12 10 -20 -3 -8 2 -16 14 -19 11 -3 19 -14 19 -26 0 -12 3 -21 8 -21 10 -1 44 -49 46 -68 2 -9 7 -17 12 -17 18 0 35 -17 30 -31 -3 -7 0 -16 6 -20 7 -5 8 -2 3 6 -6 9 -4 11 4 5 7 -4 10 -16 8 -27 -3 -11 -3 -17 0 -14 8 7 43 -23 43 -37 0 -5 12 -22 28 -37 55 -57 66 -71 68 -85 1 -8 27 -38 58 -67 31 -29 56 -60 56 -70 0 -10 7 -18 15 -18 9 0 19 -8 22 -18 4 -9 29 -37 57 -62 71 -63 98 -91 119 -120 10 -14 15 -18 12 -10 -4 8 5 3 19 -12 14 -16 29 -28 34 -28 14 0 43 -36 35 -43 -3 -4 1 -7 10 -7 9 0 24 -11 33 -24 8 -14 22 -22 29 -20 8 3 20 -4 27 -15 7 -12 18 -21 25 -21 7 0 18 -9 25 -20 7 -11 32 -32 55 -47 24 -15 43 -31 43 -35 0 -4 11 -8 24 -8 16 0 27 -7 31 -19 3 -12 12 -18 20 -15 7 3 23 -4 34 -15 12 -12 25 -21 30 -21 4 0 26 -12 47 -26 21 -15 62 -35 91 -46 29 -12 50 -24 48 -28 -3 -5 3 -6 13 -3 11 2 25 -2 33 -9 8 -7 34 -20 59 -28 25 -8 47 -18 50 -22 7 -8 116 -38 143 -38 10 0 16 -4 13 -9 -3 -5 8 -8 24 -7 17 1 30 -1 30 -4 0 -4 14 -4 31 -2 20 3 29 1 26 -5 -4 -7 91 -10 268 -10 177 0 272 3 268 10 -3 6 6 8 26 5 17 -2 31 -1 31 2 0 4 11 6 25 5 14 -2 23 1 19 6 -3 5 5 9 18 9 26 0 89 21 133 44 17 9 38 16 47 16 9 0 23 6 30 13 21 20 76 40 89 31 7 -4 10 -3 6 3 -6 10 64 43 90 43 7 0 16 6 20 14 4 7 26 19 48 26 22 7 50 19 63 27 12 7 28 11 34 7 7 -4 8 -3 4 4 -4 7 7 13 29 18 19 3 35 10 35 14 0 4 23 10 50 14 34 5 48 11 44 18 -4 7 -3 8 5 4 6 -4 17 -3 24 2 7 5 36 15 65 22 28 6 52 16 52 21 0 4 7 6 15 3 8 -4 21 -2 28 4 6 5 39 16 72 23 33 7 63 16 66 21 3 4 28 9 56 10 28 2 49 7 46 11 -3 5 12 8 33 7 72 -4 115 0 110 9 -11 18 262 36 539 36 278 0 574 -19 586 -37 3 -5 36 -9 73 -9 36 0 65 -3 62 -7 -2 -4 28 -8 68 -9 39 -2 72 -7 74 -13 2 -5 19 -10 38 -10 20 0 33 -3 31 -7 -3 -5 23 -9 56 -11 34 -1 64 -6 67 -11 3 -5 16 -12 30 -14 123 -25 148 -30 165 -38 41 -17 101 -29 148 -29 26 0 47 -4 47 -10 0 -5 12 -10 26 -10 14 0 23 -4 20 -9 -3 -4 6 -6 19 -3 14 2 25 0 25 -6 0 -6 9 -8 20 -5 11 3 27 0 35 -7 8 -6 19 -9 24 -6 5 4 12 2 15 -2 3 -5 34 -15 68 -22 35 -7 65 -17 68 -21 3 -4 50 -16 105 -28 55 -11 101 -25 103 -31 2 -5 8 -8 13 -5 11 8 129 -15 129 -25 0 -3 30 -12 67 -19 37 -7 72 -16 78 -20 13 -11 134 -41 163 -41 12 0 22 -4 22 -8 0 -9 18 -12 63 -12 15 0 27 -3 27 -7 0 -5 24 -9 53 -11 28 -1 54 -7 55 -12 2 -6 15 -10 28 -10 13 0 24 -3 24 -7 0 -5 21 -9 46 -10 25 -1 51 -7 58 -12 6 -5 56 -17 111 -26 55 -9 109 -20 120 -25 30 -14 73 -21 138 -21 32 0 55 -3 53 -7 -3 -4 10 -6 29 -4 18 2 36 -1 39 -7 4 -6 25 -11 47 -11 28 0 38 -4 33 -12 -4 -7 -3 -8 4 -4 14 9 255 -14 262 -24 5 -8 281 -30 372 -30 31 0 60 -5 63 -10 8 -14 652 -14 660 0 3 6 34 10 68 10 99 0 340 21 362 31 11 6 57 11 102 12 44 1 79 5 77 8 -2 4 29 10 69 14 39 3 74 11 77 15 3 5 44 12 90 16 47 3 99 12 115 19 17 7 53 18 80 25 28 6 64 18 82 27 18 8 37 11 44 7 7 -4 9 -3 6 3 -4 6 5 14 19 17 15 4 33 14 41 22 9 8 22 13 29 10 8 -3 14 -1 14 4 0 6 5 10 12 10 18 0 102 42 110 56 4 6 19 15 33 18 14 4 25 10 25 15 0 5 28 27 63 49 58 38 237 205 237 223 0 4 10 19 23 33 55 63 107 135 112 156 4 15 42 87 53 98 6 7 12 18 12 23 0 6 9 29 21 52 27 55 53 137 79 244 11 48 25 91 29 97 22 27 45 323 45 581 0 253 -25 616 -44 640 -4 6 -13 46 -19 90 -27 197 -69 425 -80 440 -4 5 -18 60 -31 120 -12 61 -26 112 -31 115 -4 3 -13 39 -20 80 -6 41 -15 80 -19 85 -4 6 -18 51 -31 100 -12 50 -26 92 -29 95 -4 3 -14 33 -24 67 -9 34 -23 75 -31 90 -8 15 -15 41 -15 57 0 16 -9 48 -19 70 -11 23 -27 65 -35 95 -9 30 -20 57 -24 60 -8 7 -52 139 -52 159 0 6 -4 12 -9 12 -5 0 -11 18 -15 40 -3 22 -17 64 -30 92 -13 29 -30 71 -37 93 -8 22 -17 42 -20 45 -4 3 -26 59 -50 125 -23 66 -49 126 -56 133 -7 7 -13 20 -13 27 0 14 -30 85 -40 95 -3 3 -14 30 -24 60 -11 30 -37 93 -60 140 -25 53 -42 105 -45 140 -5 47 -9 55 -28 58 -13 2 -24 13 -28 30 -7 28 -65 153 -75 162 -3 3 -12 21 -20 40 -7 19 -19 42 -27 51 -7 9 -10 19 -6 22 3 4 1 7 -5 7 -7 0 -12 10 -13 23 0 12 -23 63 -49 112 -27 50 -57 106 -67 125 -10 19 -21 37 -25 38 -5 2 -8 13 -8 23 0 19 -26 78 -39 89 -3 3 -13 19 -21 35 -8 17 -18 32 -21 35 -3 3 -19 25 -36 50 -17 25 -57 72 -89 104 -33 33 -58 63 -57 68 2 4 -3 5 -11 2 -7 -3 -24 6 -37 20 -13 14 -29 26 -35 26 -5 0 -19 8 -30 18 -26 23 -61 42 -76 42 -6 0 -19 7 -28 15 -9 8 -39 18 -66 21 -27 3 -53 9 -59 14 -29 23 -257 30 -1070 37 -476 3 -868 10 -871 15 -3 4 -134 8 -292 8 -706 -1 -3159 23 -3177 30 -11 5 -546 11 -1190 14 -643 3 -1406 8 -1695 11 -371 3 -537 1 -565 -7z"/>
</g>
<g id="layer102" fill="#1d55a5" stroke="none">
<path d="M1215 6638 c-22 -6 -42 -14 -45 -17 -3 -4 -29 -12 -58 -19 -29 -7 -60 -19 -69 -28 -9 -8 -22 -13 -30 -10 -8 3 -11 1 -8 -4 3 -6 -3 -10 -14 -10 -11 0 -26 -7 -35 -15 -8 -8 -20 -15 -26 -15 -14 0 -59 -30 -114 -77 -21 -18 -43 -30 -49 -26 -6 3 -7 2 -4 -4 7 -12 -30 -46 -43 -38 -5 3 -12 0 -16 -6 -5 -8 -3 -9 7 -4 8 5 3 -3 -11 -17 -35 -35 -60 -67 -60 -77 0 -5 -8 -15 -17 -22 -15 -12 -16 -12 -8 1 7 12 6 13 -6 2 -8 -7 -14 -16 -14 -20 0 -13 -68 -112 -77 -112 -4 0 -8 -5 -8 -10 0 -14 -41 -72 -57 -83 -7 -4 -13 -17 -13 -28 0 -11 -4 -18 -8 -15 -5 3 -8 -5 -8 -17 1 -15 -5 -22 -16 -21 -11 1 -14 -4 -11 -14 5 -11 3 -13 -7 -7 -8 5 -11 4 -6 -3 8 -14 -21 -85 -32 -78 -5 3 -23 -37 -42 -87 -18 -51 -41 -105 -51 -122 -9 -16 -24 -52 -32 -80 -8 -27 -23 -64 -32 -82 -9 -18 -26 -77 -39 -133 -12 -55 -25 -98 -28 -95 -3 3 -3 -6 -1 -20 3 -14 1 -25 -3 -25 -5 0 -10 -23 -12 -52 -1 -29 -6 -54 -11 -57 -9 -7 -41 -216 -41 -273 0 -20 -5 -40 -11 -43 -6 -4 -9 -34 -8 -71 1 -35 -1 -67 -4 -71 -9 -8 -9 -487 -1 -496 3 -3 7 -36 9 -74 1 -37 12 -142 24 -233 12 -91 20 -173 17 -182 -2 -10 2 -18 9 -18 14 0 31 -102 20 -120 -3 -5 -1 -10 6 -10 7 0 9 -10 7 -25 -3 -13 -2 -23 1 -21 3 3 19 -63 35 -145 16 -82 32 -149 36 -149 5 0 18 -45 30 -100 13 -55 27 -100 33 -100 5 0 7 -9 4 -20 -3 -11 -1 -20 5 -20 6 0 8 -9 5 -20 -3 -12 -1 -18 5 -14 7 5 9 -2 6 -19 -3 -16 0 -31 8 -38 8 -6 14 -16 14 -22 0 -24 43 -147 51 -147 5 0 9 -8 9 -18 0 -10 4 -22 9 -27 4 -6 14 -31 21 -57 7 -27 17 -48 22 -48 6 0 8 -7 4 -15 -3 -8 -1 -15 5 -15 6 0 10 -8 9 -17 -3 -24 10 -63 20 -63 5 0 14 -17 20 -37 13 -43 32 -86 41 -93 14 -10 39 -83 32 -93 -3 -5 -1 -7 4 -4 10 6 25 -15 28 -38 3 -25 17 -55 26 -55 8 0 25 -30 34 -60 7 -24 33 -67 45 -77 8 -6 12 -15 8 -18 -4 -4 0 -14 8 -22 8 -8 11 -19 8 -25 -4 -7 -2 -8 5 -4 7 5 13 -3 17 -23 4 -17 10 -31 15 -31 5 0 9 -7 9 -15 0 -8 9 -23 20 -32 11 -10 20 -23 20 -30 0 -7 5 -13 10 -13 6 0 10 -7 10 -15 0 -8 5 -15 11 -15 5 0 8 -4 5 -9 -3 -5 1 -12 10 -15 9 -3 14 -13 11 -20 -3 -8 1 -17 10 -20 8 -4 13 -12 10 -20 -3 -8 2 -16 14 -19 11 -3 19 -14 19 -26 0 -12 3 -21 8 -21 10 -1 44 -49 46 -68 2 -9 7 -17 12 -17 18 0 35 -17 30 -31 -3 -7 0 -16 6 -20 7 -5 8 -2 3 6 -6 9 -4 11 4 5 7 -4 10 -16 8 -27 -3 -11 -3 -17 0 -14 8 7 43 -23 43 -37 0 -5 12 -22 28 -37 55 -57 66 -71 68 -85 1 -8 27 -38 58 -67 31 -29 56 -60 56 -70 0 -10 7 -18 15 -18 9 0 20 -11 25 -25 5 -14 16 -25 24 -25 8 0 17 -8 21 -17 3 -10 26 -33 50 -52 25 -18 54 -48 66 -67 20 -32 37 -48 24 -21 -4 6 5 0 19 -15 14 -16 29 -28 34 -28 14 0 43 -36 35 -43 -3 -4 1 -7 10 -7 9 0 24 -11 33 -24 8 -14 22 -22 29 -20 8 3 20 -4 27 -15 7 -12 18 -21 25 -21 7 0 18 -9 25 -20 7 -11 32 -32 55 -47 24 -15 43 -31 43 -35 0 -4 11 -8 24 -8 16 0 27 -7 31 -19 3 -12 12 -18 20 -15 7 3 23 -4 34 -15 12 -12 25 -21 30 -21 4 0 26 -12 47 -26 21 -15 62 -35 91 -46 29 -12 50 -24 48 -28 -3 -5 3 -6 13 -3 11 2 25 -2 33 -9 8 -7 34 -20 59 -28 25 -8 47 -18 50 -22 7 -8 116 -38 143 -38 10 0 16 -4 13 -9 -3 -5 8 -8 24 -7 17 1 30 -1 30 -4 0 -4 14 -4 31 -2 20 3 29 1 26 -5 -4 -7 91 -10 268 -10 177 0 272 3 268 10 -3 6 6 8 26 5 17 -2 31 -1 31 2 0 4 11 6 25 5 14 -2 23 1 19 6 -3 5 5 9 18 9 26 0 89 21 133 44 17 9 38 16 47 16 9 0 23 6 30 13 21 20 76 40 89 31 7 -4 10 -3 6 3 -6 10 64 43 90 43 7 0 16 6 20 14 4 7 26 19 48 26 22 7 50 19 63 27 12 7 28 11 34 7 7 -4 8 -3 4 4 -4 7 7 13 29 18 19 3 35 10 35 14 0 4 23 10 50 14 34 5 48 11 44 18 -4 7 -3 8 5 4 6 -4 17 -3 24 2 7 5 36 15 65 22 28 6 52 16 52 21 0 4 7 6 15 3 8 -4 21 -2 28 4 6 5 39 16 72 23 33 7 63 16 66 21 3 4 28 9 56 10 28 2 49 6 46 11 -2 4 30 7 72 7 42 0 74 4 71 9 -11 18 262 36 539 36 278 0 574 -19 586 -37 3 -5 36 -9 73 -9 36 0 65 -3 62 -7 -2 -4 28 -8 68 -9 39 -2 72 -7 74 -13 2 -5 19 -10 38 -10 20 0 33 -3 31 -7 -3 -5 23 -9 56 -11 34 -1 64 -6 67 -11 3 -5 16 -12 30 -14 123 -25 148 -30 165 -38 41 -17 101 -29 148 -29 26 0 47 -4 47 -10 0 -5 12 -10 26 -10 14 0 23 -4 20 -9 -3 -4 6 -6 19 -3 14 2 25 0 25 -6 0 -6 9 -8 20 -5 11 3 27 0 35 -7 8 -6 19 -9 24 -6 5 4 12 2 15 -2 3 -5 34 -15 68 -22 35 -7 65 -17 68 -21 3 -4 50 -16 105 -28 55 -11 101 -25 103 -31 2 -5 8 -8 13 -5 11 8 129 -15 129 -25 0 -3 30 -12 67 -19 37 -7 72 -16 78 -20 13 -11 134 -41 163 -41 12 0 22 -4 22 -8 0 -9 18 -12 63 -12 15 0 27 -3 27 -7 0 -5 24 -9 53 -11 28 -1 54 -7 55 -12 2 -6 15 -10 28 -10 13 0 24 -3 24 -7 0 -5 21 -9 46 -10 25 -1 51 -7 58 -12 6 -5 56 -17 111 -26 55 -9 109 -20 120 -25 30 -14 73 -21 138 -21 32 0 55 -3 53 -7 -3 -4 10 -6 29 -4 18 2 36 -1 39 -7 4 -6 25 -11 47 -11 28 0 38 -4 33 -12 -4 -7 -3 -8 4 -4 14 9 255 -14 262 -24 5 -8 281 -30 372 -30 31 0 60 -5 63 -10 8 -14 652 -14 660 0 3 6 34 10 68 10 99 0 340 21 362 31 11 6 57 11 102 12 44 1 79 5 77 8 -2 4 29 10 69 14 39 3 74 11 77 15 3 5 44 12 90 16 47 3 99 12 115 19 17 7 53 18 80 25 28 6 64 18 82 27 18 8 37 11 44 7 7 -4 9 -3 6 3 -4 6 5 14 19 17 15 4 33 14 41 22 9 8 22 13 29 10 8 -3 14 -1 14 4 0 6 5 10 12 10 19 0 102 42 111 57 4 7 14 13 22 13 8 0 22 8 32 19 10 10 41 33 68 50 28 18 82 62 120 99 63 61 86 86 142 161 10 13 28 35 41 50 21 24 65 90 67 101 4 15 42 87 53 98 6 7 12 18 12 23 0 6 9 29 21 52 27 55 53 137 79 244 11 48 25 91 29 97 22 27 45 323 45 581 0 253 -25 616 -44 640 -4 6 -13 46 -19 90 -27 197 -69 425 -80 440 -4 5 -18 60 -31 120 -12 61 -26 112 -31 115 -4 3 -13 39 -20 80 -6 41 -15 80 -19 85 -4 6 -18 51 -31 100 -12 50 -26 92 -29 95 -4 3 -14 33 -24 67 -9 34 -23 75 -31 90 -8 15 -15 41 -15 57 0 16 -9 48 -19 70 -11 23 -27 65 -35 95 -9 30 -20 57 -24 60 -8 7 -52 139 -52 159 0 6 -4 12 -9 12 -5 0 -11 18 -15 40 -3 22 -17 64 -30 92 -13 29 -30 71 -37 93 -8 22 -17 42 -20 45 -4 3 -26 59 -50 125 -23 66 -49 126 -56 133 -7 7 -13 20 -13 27 0 14 -30 85 -40 95 -3 3 -14 30 -24 60 -11 30 -37 93 -60 140 -25 53 -42 105 -45 140 -5 47 -9 55 -28 58 -13 2 -24 13 -28 30 -7 28 -65 153 -75 162 -3 3 -12 21 -20 40 -7 19 -19 42 -27 51 -7 9 -10 19 -6 22 3 4 1 7 -5 7 -7 0 -12 10 -13 23 0 12 -23 63 -49 112 -27 50 -57 106 -67 125 -10 19 -21 37 -25 38 -5 2 -8 13 -8 23 0 19 -26 78 -39 89 -3 3 -13 19 -21 35 -8 17 -18 32 -21 35 -3 3 -19 25 -36 50 -17 25 -57 72 -89 104 -33 33 -58 63 -57 68 2 4 -3 5 -11 2 -7 -3 -24 6 -37 20 -13 14 -29 26 -35 26 -5 0 -19 8 -30 18 -26 23 -61 42 -76 42 -6 0 -19 7 -28 15 -9 8 -38 17 -64 20 -27 2 -54 9 -60 14 -30 24 -248 31 -1071 38 -476 3 -868 10 -871 15 -3 4 -134 8 -292 8 -706 -1 -3159 23 -3177 30 -11 5 -546 11 -1190 14 -643 3 -1406 8 -1695 11 -371 3 -537 1 -565 -7z m1480 -35 c242 0 528 -4 636 -8 l197 -6 22 -82 c24 -93 74 -303 84 -359 l7 -38 -75 0 c-71 0 -76 -2 -95 -29 -17 -24 -21 -46 -23 -142 l-3 -114 -210 3 c-115 1 -238 5 -272 9 l-63 5 0 112 c0 152 5 148 -195 147 -107 -1 -155 2 -160 10 -6 8 -100 9 -370 4 l-363 -7 -43 29 c-24 17 -141 90 -259 163 -118 73 -223 140 -233 148 -15 13 -17 29 -15 86 l3 71 140 6 c77 3 300 3 495 0 195 -3 553 -7 795 -8z m2465 -19 c514 -1 1315 -9 1905 -17 154 -2 303 -7 331 -12 l51 -7 -76 -95 c-41 -52 -77 -91 -79 -85 -1 5 -7 45 -12 88 l-9 79 4 -95 c3 -52 12 -208 21 -346 9 -138 14 -267 10 -287 -4 -23 -18 -46 -39 -63 -36 -30 -2 -30 -397 0 -605 47 -1459 47 -2245 0 -143 -8 -302 -19 -353 -24 -52 -5 -101 -6 -110 -3 -90 28 -91 32 -102 385 -5 167 -11 345 -13 395 l-4 92 136 4 c75 2 206 2 291 -2 85 -3 396 -6 690 -7z m4559 -49 c85 -3 156 -7 159 -9 3 -4 6 -98 3 -133 -1 -6 -47 -34 -103 -62 -166 -83 -263 -134 -296 -158 -16 -13 -36 -23 -43 -23 -6 0 -50 -21 -96 -46 l-84 -45 -419 -6 -419 -6 -11 29 c-6 15 -9 39 -5 51 6 26 -49 151 -71 160 -8 3 -14 11 -14 19 0 7 -8 18 -17 23 -10 6 -15 11 -10 11 11 0 -39 96 -79 153 -19 26 -34 49 -34 52 0 6 1308 -3 1539 -10z m-1372 -691 c-1 -2 -90 -6 -196 -10 l-193 -7 37 36 c21 21 47 37 57 37 11 0 34 15 51 33 27 27 40 32 82 34 72 2 121 10 142 21 17 10 18 5 21 -65 2 -41 1 -77 -1 -79z m-6182 -1059 c0 -699 -3 -1054 -10 -1052 -10 4 -20 2068 -10 2095 2 6 8 12 12 12 4 0 8 -475 8 -1055z m6863 1043 c9 -9 12 -254 12 -1039 0 -565 -3 -1034 -6 -1043 -3 -9 -11 -16 -18 -16 -8 0 -11 270 -11 1055 0 580 2 1055 6 1055 3 0 10 -5 17 -12z m-3373 -1781 c17 -3 37 -8 46 -11 9 -4 29 -9 45 -11 16 -2 29 -5 29 -6 0 -1 10 -3 22 -4 12 -1 37 -9 55 -17 18 -8 67 -27 108 -42 108 -39 143 -58 156 -84 6 -12 18 -28 27 -35 20 -16 38 -76 40 -135 1 -26 6 -52 10 -59 4 -6 4 -18 1 -27 -3 -9 -1 -23 6 -31 6 -8 9 -19 5 -25 -4 -6 -4 -19 0 -28 4 -9 9 -28 11 -42 7 -52 55 -206 72 -230 62 -87 61 -154 -3 -290 l-50 -105 0 -107 c0 -125 6 -115 -147 -240 -54 -43 -98 -82 -98 -87 0 -4 11 -18 25 -31 48 -45 21 -87 -60 -92 -41 -2 -50 -7 -53 -23 -9 -48 -58 -69 -104 -44 -17 9 -24 7 -42 -14 -52 -62 -93 -61 -158 3 -56 56 -86 63 -128 30 -34 -27 -43 -25 -37 8 14 67 14 67 -18 68 -16 1 -38 5 -48 9 -10 4 -30 2 -44 -4 -26 -12 -26 -12 -19 28 7 47 -4 54 -59 35 -49 -17 -52 -17 -37 -2 19 19 14 28 -14 28 -37 0 -98 36 -117 70 -21 35 -21 50 -2 50 25 0 17 17 -15 30 -73 30 -119 134 -71 159 10 6 21 7 25 4 14 -14 5 18 -21 73 -24 51 -28 73 -29 164 -2 69 -8 118 -18 142 -17 39 -13 83 11 131 18 36 55 154 59 192 2 16 9 34 14 39 6 6 10 19 10 31 1 11 9 38 20 60 11 22 19 47 20 56 0 8 4 19 9 25 4 5 14 38 20 74 22 117 47 177 87 212 38 33 109 78 124 78 5 0 21 5 37 11 15 7 41 13 57 15 16 3 31 5 32 7 4 3 176 -1 209 -6z m-2982 -564 c2 -186 -1 -234 -11 -238 -8 -3 -54 -5 -102 -5 l-89 0 -3 236 c-2 130 -1 238 1 240 3 3 50 3 104 2 l99 -3 1 -232z m5835 -31 l2 -263 -107 3 -108 3 -2 254 c-1 139 0 258 3 263 3 5 51 7 107 6 l102 -3 3 -263z m-6790 -354 c7 -62 14 -124 16 -138 11 -72 38 -297 56 -465 11 -104 25 -217 31 -250 5 -33 12 -85 14 -115 4 -54 49 -430 60 -500 3 -19 16 -134 30 -255 14 -121 29 -232 34 -247 11 -32 5 -35 -20 -12 -10 9 -15 22 -12 30 3 8 0 21 -6 28 -7 8 -9 25 -6 39 4 14 2 28 -4 31 -5 4 -8 13 -5 20 7 19 -25 248 -37 262 -5 6 -7 19 -3 28 3 9 1 22 -5 30 -6 7 -8 27 -5 43 3 18 1 33 -5 37 -6 4 -8 20 -5 35 4 17 1 32 -5 36 -7 4 -9 19 -5 40 3 19 1 35 -5 39 -6 4 -8 20 -5 35 4 16 1 32 -5 35 -6 4 -9 12 -5 17 7 12 -15 186 -29 219 -10 24 -16 63 -20 127 -1 17 -5 35 -10 39 -4 4 -5 22 -1 40 3 18 1 35 -5 38 -5 4 -8 13 -5 21 7 18 -45 387 -56 399 -5 5 -6 21 -3 36 3 15 0 31 -6 34 -6 4 -8 18 -5 32 3 13 1 30 -5 38 -6 7 -9 21 -5 30 3 9 3 24 -1 34 -4 9 -9 37 -10 62 -1 25 -6 71 -10 103 l-7 57 34 0 34 0 12 -112z m6569 88 c4 -3 -22 -6 -56 -6 -42 0 -60 4 -56 11 7 11 101 7 112 -5z m1180 -144 c-2 -71 -7 -134 -11 -140 -4 -7 -4 -36 -1 -66 5 -37 3 -56 -5 -61 -8 -5 -9 -23 -5 -56 4 -31 3 -55 -4 -63 -11 -14 -44 -337 -39 -391 1 -17 -1 -36 -6 -43 -4 -7 -7 -36 -6 -65 2 -28 -1 -60 -5 -70 -4 -10 -5 -38 -2 -63 2 -25 0 -47 -5 -51 -7 -3 -8 -29 -4 -64 3 -37 2 -60 -5 -65 -7 -4 -8 -27 -4 -64 4 -38 3 -60 -4 -65 -8 -4 -9 -24 -5 -56 4 -33 3 -54 -6 -64 -7 -9 -10 -25 -6 -41 4 -14 3 -31 -2 -37 -12 -15 -44 -389 -37 -420 4 -15 1 -28 -9 -36 -21 -18 -36 -5 -31 27 2 15 9 79 15 142 6 63 16 149 21 190 5 41 25 264 44 495 20 231 42 474 50 540 12 101 41 417 59 650 6 71 5 65 11 65 3 0 4 -58 2 -128z"/>
</g>
<g id="layer103" fill="#64607c" stroke="none">
<path d="M1215 6638 c-22 -6 -42 -14 -45 -17 -3 -4 -29 -12 -58 -19 -29 -7 -60 -19 -69 -28 -9 -8 -22 -13 -30 -10 -8 3 -11 1 -8 -4 3 -6 -3 -10 -14 -10 -11 0 -26 -7 -35 -15 -8 -8 -20 -15 -26 -15 -14 0 -59 -30 -114 -77 -21 -18 -43 -30 -49 -26 -6 3 -7 2 -4 -4 7 -12 -30 -46 -43 -38 -5 3 -12 0 -16 -6 -5 -8 -3 -9 7 -4 8 5 3 -3 -11 -17 -35 -35 -60 -67 -60 -77 0 -5 -8 -15 -17 -22 -15 -12 -16 -12 -8 1 7 12 6 13 -6 2 -8 -7 -14 -16 -14 -20 0 -13 -68 -112 -77 -112 -4 0 -8 -5 -8 -10 0 -14 -41 -72 -57 -83 -7 -4 -13 -17 -13 -28 0 -11 -4 -18 -8 -15 -5 3 -8 -5 -8 -17 1 -15 -5 -22 -16 -21 -11 1 -14 -4 -11 -14 5 -11 3 -13 -7 -7 -8 5 -11 4 -6 -3 8 -14 -21 -85 -32 -78 -5 3 -23 -37 -42 -87 -18 -51 -41 -105 -51 -122 -9 -16 -24 -52 -32 -80 -8 -27 -23 -64 -32 -82 -9 -18 -26 -77 -39 -133 -12 -55 -25 -98 -28 -95 -3 3 -3 -6 -1 -20 3 -14 1 -25 -3 -25 -5 0 -10 -23 -12 -52 -1 -29 -6 -54 -11 -57 -9 -7 -41 -216 -41 -273 0 -20 -5 -40 -11 -43 -6 -4 -9 -34 -8 -71 1 -35 -1 -67 -4 -71 -9 -8 -9 -487 -1 -496 3 -3 7 -36 9 -74 1 -37 12 -142 24 -233 12 -91 20 -173 17 -182 -2 -10 2 -18 9 -18 14 0 31 -102 20 -120 -3 -5 -1 -10 6 -10 7 0 9 -10 7 -25 -3 -13 -2 -23 1 -21 3 3 19 -63 35 -145 16 -82 32 -149 36 -149 5 0 18 -45 30 -100 13 -55 27 -100 33 -100 5 0 7 -9 4 -20 -3 -11 -1 -20 5 -20 6 0 8 -9 5 -20 -3 -12 -1 -18 5 -14 7 5 9 -2 6 -19 -3 -16 0 -31 8 -38 8 -6 14 -16 14 -22 0 -24 43 -147 51 -147 5 0 9 -8 9 -18 0 -10 4 -22 9 -27 4 -6 14 -31 21 -57 7 -27 17 -48 22 -48 6 0 8 -7 4 -15 -3 -8 -1 -15 5 -15 6 0 10 -8 9 -17 -3 -24 10 -63 20 -63 5 0 14 -17 20 -37 13 -43 32 -86 41 -93 14 -10 39 -83 32 -93 -3 -5 -1 -7 4 -4 10 6 25 -15 28 -38 3 -25 17 -55 26 -55 8 0 25 -30 34 -60 7 -24 33 -67 45 -77 8 -6 12 -15 8 -18 -4 -4 0 -14 8 -22 8 -8 11 -19 8 -25 -4 -7 -2 -8 5 -4 7 5 13 -3 17 -23 4 -17 10 -31 15 -31 5 0 9 -7 9 -15 0 -8 9 -23 20 -32 11 -10 20 -23 20 -30 0 -7 5 -13 10 -13 6 0 10 -7 10 -15 0 -8 5 -15 11 -15 5 0 8 -4 5 -9 -3 -5 1 -12 10 -15 9 -3 14 -13 11 -20 -3 -8 1 -17 10 -20 8 -4 13 -12 10 -20 -3 -8 2 -16 14 -19 11 -3 19 -14 19 -26 0 -12 3 -21 8 -21 10 -1 44 -49 46 -68 2 -9 7 -17 12 -17 18 0 35 -17 30 -31 -3 -7 0 -16 6 -20 7 -5 8 -2 3 6 -6 9 -4 11 4 5 7 -4 10 -16 8 -27 -3 -11 -3 -17 0 -14 8 7 43 -23 43 -37 0 -5 12 -22 28 -37 55 -57 66 -71 68 -85 1 -8 27 -38 58 -67 31 -29 56 -60 56 -70 0 -10 7 -18 15 -18 9 0 20 -11 25 -25 5 -14 16 -25 24 -25 8 0 17 -8 21 -17 3 -10 26 -33 50 -52 25 -18 54 -48 66 -67 20 -32 37 -48 24 -21 -4 6 5 0 19 -15 14 -16 29 -28 34 -28 14 0 43 -36 35 -43 -3 -4 1 -7 10 -7 9 0 24 -11 33 -24 8 -14 22 -22 29 -20 8 3 20 -4 27 -15 7 -12 18 -21 25 -21 7 0 18 -9 25 -20 7 -11 32 -32 55 -47 24 -15 43 -31 43 -35 0 -4 11 -8 24 -8 16 0 27 -7 31 -19 3 -12 12 -18 20 -15 7 3 23 -4 34 -15 12 -12 25 -21 30 -21 4 0 26 -12 47 -26 21 -15 62 -35 91 -46 29 -12 50 -24 48 -28 -3 -5 3 -6 13 -3 11 2 25 -2 33 -9 8 -7 34 -20 59 -28 25 -8 47 -18 50 -22 7 -8 116 -38 143 -38 10 0 16 -4 13 -9 -3 -5 8 -8 24 -7 17 1 30 -1 30 -4 0 -4 14 -4 31 -2 20 3 29 1 26 -5 -4 -7 91 -10 268 -10 177 0 272 3 268 10 -3 6 6 8 26 5 17 -2 31 -1 31 2 0 4 11 6 25 5 14 -2 23 1 19 6 -3 5 5 9 18 9 26 0 89 21 133 44 17 9 38 16 47 16 9 0 23 6 30 13 21 20 76 40 89 31 7 -4 10 -3 6 3 -6 10 64 43 90 43 7 0 16 6 20 14 4 7 26 19 48 26 22 7 50 19 63 27 12 7 28 11 34 7 7 -4 8 -3 4 4 -4 7 7 13 29 18 19 3 35 10 35 14 0 4 23 10 50 14 34 5 48 11 44 18 -4 7 -3 8 5 4 6 -4 17 -3 24 2 7 5 36 15 65 22 28 6 52 16 52 21 0 4 7 6 15 3 8 -4 21 -2 28 4 6 5 39 16 72 23 33 7 63 16 66 21 3 4 28 9 56 10 28 2 49 6 46 11 -2 4 30 7 72 7 42 0 74 4 71 9 -11 18 262 36 539 36 278 0 574 -19 586 -37 3 -5 36 -9 73 -9 36 0 65 -3 62 -7 -2 -4 28 -8 68 -9 39 -2 72 -7 74 -13 2 -5 19 -10 38 -10 20 0 33 -3 31 -7 -3 -5 23 -9 56 -11 34 -1 64 -6 67 -11 3 -5 16 -12 30 -14 123 -25 148 -30 165 -38 41 -17 101 -29 148 -29 26 0 47 -4 47 -10 0 -5 12 -10 26 -10 14 0 23 -4 20 -9 -3 -4 6 -6 19 -3 14 2 25 0 25 -6 0 -6 9 -8 20 -5 11 3 27 0 35 -7 8 -6 19 -9 24 -6 5 4 12 2 15 -2 3 -5 34 -15 68 -22 35 -7 65 -17 68 -21 3 -4 50 -16 105 -28 55 -11 101 -25 103 -31 2 -5 8 -8 13 -5 11 8 129 -15 129 -25 0 -3 30 -12 67 -19 37 -7 72 -16 78 -20 13 -11 134 -41 163 -41 12 0 22 -4 22 -8 0 -9 18 -12 63 -12 15 0 27 -3 27 -7 0 -5 24 -9 53 -11 28 -1 54 -7 55 -12 2 -6 15 -10 28 -10 13 0 24 -3 24 -7 0 -5 21 -9 46 -10 25 -1 51 -7 58 -12 6 -5 56 -17 111 -26 55 -9 109 -20 120 -25 30 -14 73 -21 138 -21 32 0 55 -3 53 -7 -3 -4 10 -6 29 -4 18 2 36 -1 39 -7 4 -6 25 -11 47 -11 28 0 38 -4 33 -12 -4 -7 -3 -8 4 -4 14 9 255 -14 262 -24 5 -8 281 -30 372 -30 31 0 60 -5 63 -10 8 -14 652 -14 660 0 3 6 34 10 68 10 99 0 340 21 362 31 11 6 57 11 102 12 44 1 79 5 77 8 -2 4 29 10 69 14 39 3 74 11 77 15 3 5 44 12 90 16 47 3 99 12 115 19 17 7 53 18 80 25 28 6 64 18 82 27 18 8 37 11 44 7 7 -4 9 -3 6 3 -4 6 5 14 19 17 15 4 33 14 41 22 9 8 22 13 29 10 8 -3 14 -1 14 4 0 6 5 10 12 10 19 0 102 42 111 57 4 7 14 13 22 13 8 0 22 8 32 19 10 10 41 33 68 50 28 18 82 62 120 99 63 61 86 86 142 161 10 13 28 35 41 50 21 24 65 90 67 101 4 15 42 87 53 98 6 7 12 18 12 23 0 6 9 29 21 52 27 55 53 137 79 244 11 48 25 91 29 97 22 27 45 323 45 581 0 253 -25 616 -44 640 -4 6 -13 46 -19 90 -27 196 -69 425 -80 440 -4 5 -16 48 -25 95 -10 47 -20 92 -23 100 -4 8 -5 19 -4 24 1 5 -2 12 -8 15 -6 4 -15 40 -22 81 -6 41 -15 80 -19 85 -4 6 -18 51 -31 100 -12 50 -26 92 -29 95 -4 3 -14 33 -24 67 -9 34 -23 75 -31 90 -8 15 -15 41 -15 57 0 16 -9 48 -19 70 -11 23 -27 65 -35 95 -9 30 -20 57 -24 60 -8 7 -52 139 -52 159 0 6 -4 12 -9 12 -5 0 -11 18 -15 40 -3 22 -17 64 -30 92 -13 29 -30 71 -37 93 -8 22 -17 42 -20 45 -4 3 -26 59 -50 125 -23 66 -49 126 -56 133 -7 7 -13 20 -13 27 0 14 -30 85 -40 95 -3 3 -14 30 -24 60 -11 30 -37 93 -60 140 -25 53 -42 105 -45 140 -5 47 -9 55 -28 58 -13 2 -24 13 -28 30 -7 28 -65 153 -75 162 -3 3 -12 21 -20 40 -7 19 -19 42 -27 51 -7 9 -10 19 -6 22 3 4 1 7 -5 7 -7 0 -12 10 -13 23 0 12 -23 63 -49 112 -27 50 -57 106 -67 125 -10 19 -21 37 -25 38 -5 2 -8 13 -8 23 0 19 -26 78 -39 89 -3 3 -13 19 -21 35 -8 17 -18 32 -21 35 -3 3 -19 25 -36 50 -17 25 -57 72 -89 104 -33 33 -58 63 -57 68 2 4 -3 5 -11 2 -7 -3 -24 6 -37 20 -13 14 -29 26 -35 26 -5 0 -19 8 -30 18 -26 23 -61 42 -76 42 -6 0 -19 7 -28 15 -9 8 -38 17 -64 20 -27 2 -54 9 -60 14 -30 24 -248 31 -1071 38 -476 3 -868 10 -871 15 -3 4 -134 8 -292 8 -706 -1 -3159 23 -3177 30 -11 5 -546 11 -1190 14 -643 3 -1406 8 -1695 11 -371 3 -537 1 -565 -7z m1480 -34 c248 -1 758 -5 1135 -8 377 -3 951 -7 1275 -10 732 -5 1587 -13 1970 -19 729 -10 1501 -19 1950 -22 492 -4 845 -12 853 -19 3 -4 6 -98 3 -133 -1 -6 -47 -34 -103 -62 -166 -83 -263 -134 -296 -158 -16 -13 -36 -23 -43 -23 -6 0 -50 -21 -96 -46 l-84 -45 -419 -6 -419 -6 -11 29 c-6 15 -9 39 -5 51 6 26 -49 151 -70 160 -7 2 -15 13 -18 24 -3 10 -10 19 -16 19 -11 0 -163 -301 -175 -345 -5 -19 -2 -20 52 -18 81 3 127 9 151 22 21 11 21 10 21 -67 l0 -79 -112 -6 c-62 -4 -151 -7 -196 -7 -69 0 -88 -4 -109 -20 -14 -11 -38 -20 -53 -20 -26 0 -37 -16 -162 -247 -199 -369 -226 -427 -248 -534 -11 -52 -20 -106 -20 -121 0 -30 -93 -122 -215 -213 -99 -75 -111 -79 -305 -120 -217 -45 -297 -69 -380 -111 -67 -35 -164 -64 -211 -64 -15 0 -41 -3 -58 -6 -25 -5 -31 -11 -31 -33 -1 -81 -81 -166 -191 -201 -64 -21 -83 -22 -217 -17 -81 3 -165 11 -186 17 -30 9 -54 9 -95 1 -74 -15 -205 -14 -266 3 -146 39 -230 121 -271 263 -4 14 -37 30 -291 138 -185 79 -346 136 -457 160 -142 31 -246 99 -246 161 0 36 -28 74 -55 74 -16 0 -16 1 -40 130 -9 47 -29 112 -45 146 -35 74 -50 153 -50 255 0 83 -13 126 -128 424 -27 72 -53 149 -57 173 l-7 42 -78 0 c-75 0 -80 -1 -99 -29 -17 -24 -21 -46 -23 -142 l-3 -114 -210 3 c-115 1 -238 5 -272 9 l-63 5 0 112 c0 152 5 148 -195 147 -107 -1 -155 2 -160 10 -6 8 -100 9 -370 4 l-363 -7 -43 29 c-24 17 -141 90 -259 163 -118 73 -223 140 -233 148 -15 13 -17 29 -15 86 l3 71 140 6 c77 3 298 3 490 0 193 -3 553 -6 800 -7z m-530 -1819 c0 -699 -3 -1054 -10 -1052 -10 4 -20 2068 -10 2095 2 6 8 12 12 12 4 0 8 -475 8 -1055z m6863 1043 c9 -9 12 -254 12 -1039 0 -565 -3 -1034 -6 -1043 -3 -9 -11 -16 -18 -16 -8 0 -11 270 -11 1055 0 580 2 1055 6 1055 3 0 10 -5 17 -12z m-5559 -1414 c45 -14 -46 -17 -462 -16 -487 2 -690 9 -681 23 5 9 1116 2 1143 -7z m6 -155 c5 -6 4 -9 -5 -9 -8 0 -229 0 -490 0 -494 0 -660 6 -660 23 0 13 1141 0 1155 -14z m-312 -136 c175 -3 317 -10 317 -15 0 -4 -112 -8 -248 -8 -390 0 -912 12 -912 22 0 10 406 11 843 1z m2492 -76 c17 -3 37 -8 46 -11 9 -4 29 -9 45 -11 16 -2 29 -5 29 -6 0 -1 10 -3 22 -4 12 -1 37 -9 55 -17 18 -8 67 -27 108 -42 108 -39 143 -58 156 -84 6 -12 18 -28 27 -35 20 -16 38 -76 40 -135 1 -26 6 -52 10 -59 4 -6 4 -18 1 -27 -3 -9 -1 -23 6 -31 6 -8 9 -19 5 -25 -4 -6 -4 -19 0 -28 4 -9 9 -28 11 -42 7 -52 55 -206 72 -230 32 -45 47 -94 46 -152 l-1 -58 169 0 168 0 0 -855 0 -855 -1060 0 -1060 0 0 855 0 855 205 0 c230 0 222 -3 190 73 -16 38 -12 83 12 130 18 36 55 154 59 192 2 16 9 34 14 39 6 6 10 19 10 31 1 11 9 38 20 60 11 22 19 47 20 56 0 8 4 19 9 25 4 5 14 38 20 74 22 117 47 177 87 212 38 33 109 78 124 78 5 0 21 5 37 11 15 7 41 13 57 15 16 3 31 5 32 7 4 3 176 -1 209 -6z m-2982 -564 c2 -186 -1 -234 -11 -238 -8 -3 -54 -5 -102 -5 l-89 0 -3 236 c-2 130 -1 238 1 240 3 3 50 3 104 2 l99 -3 1 -232z m5835 -31 l2 -263 -107 3 -108 3 -2 254 c-1 139 0 258 3 263 3 5 51 7 107 6 l102 -3 3 -263z m-6790 -354 c7 -62 14 -124 16 -138 11 -72 38 -297 56 -465 11 -104 25 -217 31 -250 5 -33 12 -85 14 -115 4 -54 49 -430 60 -500 3 -19 16 -134 30 -255 14 -121 29 -232 34 -247 11 -32 5 -35 -20 -12 -10 9 -15 22 -12 30 3 8 0 21 -6 28 -7 8 -9 25 -6 39 4 14 2 28 -4 31 -5 4 -8 13 -5 20 7 19 -25 248 -37 262 -5 6 -7 19 -3 28 3 9 1 22 -5 30 -6 7 -8 27 -5 43 3 18 1 33 -5 37 -6 4 -8 20 -5 35 4 17 1 32 -5 36 -7 4 -9 19 -5 40 3 19 1 35 -5 39 -6 4 -8 20 -5 35 4 16 1 32 -5 35 -6 4 -9 12 -5 17 7 12 -15 186 -29 219 -10 24 -16 63 -20 127 -1 17 -5 35 -10 39 -4 4 -5 22 -1 40 3 18 1 35 -5 38 -5 4 -8 13 -5 21 7 18 -45 387 -56 399 -5 5 -6 21 -3 36 3 15 0 31 -6 34 -6 4 -8 18 -5 32 3 13 1 30 -5 38 -6 7 -9 21 -5 30 3 9 3 24 -1 34 -4 9 -9 37 -10 62 -1 25 -6 71 -10 103 l-7 57 34 0 34 0 12 -112z m6569 88 c4 -3 -22 -6 -56 -6 -42 0 -60 4 -56 11 7 11 101 7 112 -5z m1180 -144 c-2 -71 -7 -134 -11 -140 -4 -7 -4 -36 -1 -66 5 -37 3 -56 -5 -61 -8 -5 -9 -23 -5 -56 4 -31 3 -55 -4 -63 -11 -14 -44 -337 -39 -391 1 -17 -1 -36 -6 -43 -4 -7 -7 -36 -6 -65 2 -28 -1 -60 -5 -70 -4 -10 -5 -38 -2 -63 2 -25 0 -47 -5 -51 -7 -3 -8 -29 -4 -64 3 -37 2 -60 -5 -65 -7 -4 -8 -27 -4 -64 4 -38 3 -60 -4 -65 -8 -4 -9 -24 -5 -56 4 -33 3 -54 -6 -64 -7 -9 -10 -25 -6 -41 4 -14 3 -31 -2 -37 -12 -15 -44 -389 -37 -420 4 -15 1 -28 -9 -36 -21 -18 -36 -5 -31 27 2 15 9 79 15 142 6 63 16 149 21 190 5 41 25 264 44 495 20 231 42 474 50 540 12 101 41 417 59 650 6 71 5 65 11 65 3 0 4 -58 2 -128z m-5705 -7 c15 -102 69 -501 118 -865 28 -206 64 -471 81 -589 16 -118 26 -217 22 -221 -4 -4 -89 -12 -188 -19 -375 -24 -1554 -101 -1642 -107 -91 -6 -92 -6 -97 17 -5 25 -17 124 -116 939 -33 272 -70 569 -81 658 -12 91 -17 167 -13 172 5 4 182 13 394 20 212 7 603 20 870 30 267 10 521 17 565 16 l80 -1 7 -50z m4728 -30 c377 -9 718 -18 758 -21 l74 -6 -6 -66 c-10 -103 -74 -810 -96 -1057 -37 -419 -62 -670 -65 -674 -3 -2 -240 9 -527 23 -288 15 -720 37 -960 49 -240 12 -438 24 -441 27 -3 3 15 196 39 430 24 234 61 605 84 825 22 220 43 422 46 449 l6 49 202 -7 c110 -3 509 -13 886 -21z"/>
</g>
<g id="layer104" fill="#f3b9ba" stroke="none">
<path d="M1215 6638 c-22 -6 -42 -14 -45 -17 -3 -4 -29 -12 -58 -19 -29 -7 -60 -19 -69 -28 -9 -8 -22 -13 -30 -10 -8 3 -11 1 -8 -4 3 -6 -3 -10 -14 -10 -11 0 -26 -7 -35 -15 -8 -8 -20 -15 -26 -15 -14 0 -59 -30 -114 -77 -21 -18 -43 -30 -49 -26 -6 3 -7 2 -4 -4 7 -12 -30 -46 -43 -38 -5 3 -12 0 -16 -6 -5 -8 -3 -9 7 -4 8 5 3 -3 -11 -17 -35 -35 -60 -67 -60 -77 0 -5 -8 -15 -17 -22 -15 -12 -16 -12 -8 1 7 12 6 13 -6 2 -8 -7 -14 -16 -14 -20 0 -13 -68 -112 -77 -112 -4 0 -8 -5 -8 -10 0 -14 -41 -72 -57 -83 -7 -4 -13 -17 -13 -28 0 -11 -4 -18 -8 -15 -5 3 -8 -5 -8 -17 1 -15 -5 -22 -16 -21 -11 1 -14 -4 -11 -14 5 -11 3 -13 -7 -7 -8 5 -11 4 -6 -3 8 -14 -21 -85 -32 -78 -5 3 -23 -37 -42 -87 -18 -51 -41 -105 -51 -122 -9 -16 -24 -52 -32 -80 -8 -27 -23 -64 -32 -82 -9 -18 -26 -77 -39 -133 -12 -55 -25 -98 -28 -95 -3 3 -3 -6 -1 -20 3 -14 1 -25 -3 -25 -5 0 -10 -23 -12 -52 -1 -29 -6 -54 -11 -57 -9 -7 -41 -216 -41 -273 0 -20 -5 -40 -11 -43 -6 -4 -9 -34 -8 -71 1 -35 -1 -67 -4 -71 -9 -8 -9 -487 -1 -496 3 -3 7 -36 9 -74 1 -37 12 -142 24 -233 12 -91 20 -173 17 -182 -2 -10 2 -18 9 -18 14 0 31 -102 20 -120 -3 -5 -1 -10 6 -10 7 0 9 -10 7 -25 -3 -13 -2 -23 1 -21 3 3 19 -63 35 -145 16 -82 32 -149 36 -149 5 0 18 -45 30 -100 13 -55 27 -100 33 -100 5 0 7 -9 4 -20 -3 -11 -1 -20 5 -20 6 0 8 -9 5 -20 -3 -12 -1 -18 5 -14 7 5 9 -2 6 -19 -3 -16 0 -31 8 -38 8 -6 14 -16 14 -22 0 -24 43 -147 51 -147 5 0 9 -8 9 -18 0 -10 4 -22 9 -27 4 -6 14 -31 21 -57 7 -27 17 -48 22 -48 6 0 8 -7 4 -15 -3 -8 -1 -15 5 -15 6 0 10 -8 9 -17 -3 -24 10 -63 20 -63 5 0 14 -17 20 -37 13 -43 32 -86 41 -93 14 -10 39 -83 32 -93 -3 -5 -1 -7 4 -4 10 6 25 -15 28 -38 3 -25 17 -55 26 -55 8 0 25 -30 34 -60 7 -24 33 -67 45 -77 8 -6 12 -15 8 -18 -4 -4 0 -14 8 -22 8 -8 11 -19 8 -25 -4 -7 -2 -8 5 -4 7 5 13 -3 17 -23 4 -17 10 -31 15 -31 5 0 9 -7 9 -15 0 -8 9 -23 20 -32 11 -10 20 -23 20 -30 0 -7 5 -13 10 -13 6 0 10 -7 10 -15 0 -8 5 -15 11 -15 5 0 8 -4 5 -9 -3 -5 1 -12 10 -15 9 -3 14 -13 11 -20 -3 -8 1 -17 10 -20 8 -4 13 -12 10 -20 -3 -8 2 -16 14 -19 11 -3 19 -14 19 -26 0 -12 3 -21 8 -21 10 -1 44 -49 46 -68 2 -9 7 -17 12 -17 18 0 35 -17 30 -31 -3 -7 0 -16 6 -20 7 -5 8 -2 3 6 -6 9 -4 11 4 5 7 -4 10 -16 8 -27 -3 -11 -3 -17 0 -14 8 7 43 -23 43 -37 0 -5 12 -22 28 -37 55 -57 66 -71 68 -85 1 -8 27 -38 58 -67 31 -29 56 -60 56 -70 0 -10 7 -18 15 -18 9 0 20 -11 25 -25 5 -14 16 -25 24 -25 8 0 17 -8 21 -17 3 -10 26 -33 50 -52 25 -18 54 -48 66 -67 20 -32 37 -48 24 -21 -4 6 5 0 19 -15 14 -16 29 -28 34 -28 14 0 43 -36 35 -43 -3 -4 1 -7 10 -7 9 0 24 -11 33 -24 8 -14 22 -22 29 -20 8 3 20 -4 27 -15 7 -12 18 -21 25 -21 7 0 18 -9 25 -20 7 -11 32 -32 55 -47 24 -15 43 -31 43 -35 0 -4 11 -8 24 -8 16 0 27 -7 31 -19 3 -12 12 -18 20 -15 7 3 23 -4 34 -15 12 -12 25 -21 30 -21 4 0 26 -12 47 -26 21 -15 62 -35 91 -46 29 -12 50 -24 48 -28 -3 -5 3 -6 13 -3 11 2 25 -2 33 -9 8 -7 34 -20 59 -28 25 -8 47 -18 50 -22 7 -8 116 -38 143 -38 10 0 16 -4 13 -9 -3 -5 8 -8 24 -7 17 1 30 -1 30 -4 0 -4 14 -4 31 -2 20 3 29 1 26 -5 -4 -7 91 -10 268 -10 177 0 272 3 268 10 -3 6 6 8 26 5 17 -2 31 -1 31 2 0 4 11 6 25 5 14 -2 23 1 19 6 -3 5 5 9 18 9 26 0 89 21 133 44 17 9 38 16 47 16 9 0 23 6 30 13 21 20 76 40 89 31 7 -4 10 -3 6 3 -6 10 64 43 90 43 7 0 16 6 20 14 4 7 26 19 48 26 22 7 50 19 63 27 12 7 28 11 34 7 7 -4 8 -3 4 4 -4 7 7 13 29 18 19 3 35 10 35 14 0 4 23 10 50 14 34 5 48 11 44 18 -4 7 -3 8 5 4 6 -4 17 -3 24 2 7 5 36 15 65 22 28 6 52 16 52 21 0 4 7 6 15 3 8 -4 21 -2 28 4 6 5 39 16 72 23 33 7 63 16 66 21 3 4 28 9 56 10 28 2 49 6 46 11 -2 4 30 7 72 7 42 0 74 4 71 9 -11 18 262 36 539 36 278 0 574 -19 586 -37 3 -5 36 -9 73 -9 36 0 65 -3 62 -7 -2 -4 28 -8 68 -9 39 -2 72 -7 74 -13 2 -5 19 -10 38 -10 20 0 33 -3 31 -7 -3 -5 23 -9 56 -11 34 -1 64 -6 67 -11 3 -5 16 -12 30 -14 123 -25 148 -30 165 -38 41 -17 101 -29 148 -29 26 0 47 -4 47 -10 0 -5 12 -10 26 -10 14 0 23 -4 20 -9 -3 -4 6 -6 19 -3 14 2 25 0 25 -6 0 -6 9 -8 20 -5 11 3 27 0 35 -7 8 -6 19 -9 24 -6 5 4 12 2 15 -2 3 -5 34 -15 68 -22 35 -7 65 -17 68 -21 3 -4 50 -16 105 -28 55 -11 101 -25 103 -31 2 -5 8 -8 13 -5 11 8 129 -15 129 -25 0 -3 30 -12 67 -19 37 -7 72 -16 78 -20 13 -11 134 -41 163 -41 12 0 22 -4 22 -8 0 -9 18 -12 63 -12 15 0 27 -3 27 -7 0 -5 24 -9 53 -11 28 -1 54 -7 55 -12 2 -6 15 -10 28 -10 13 0 24 -3 24 -7 0 -5 21 -9 46 -10 25 -1 51 -7 58 -12 6 -5 56 -17 111 -26 55 -9 109 -20 120 -25 30 -14 73 -21 138 -21 32 0 55 -3 53 -7 -3 -4 10 -6 29 -4 18 2 36 -1 39 -7 4 -6 25 -11 47 -11 28 0 38 -4 33 -12 -4 -7 -3 -8 4 -4 14 9 255 -14 262 -24 5 -8 281 -30 372 -30 31 0 60 -5 63 -10 8 -14 652 -14 660 0 3 6 34 10 68 10 99 0 340 21 362 31 11 6 57 11 102 12 44 1 79 5 77 8 -2 4 29 10 69 14 39 3 74 11 77 15 3 5 44 12 90 16 47 3 99 12 115 19 17 7 53 18 80 25 28 6 64 18 82 27 18 8 37 11 44 7 7 -4 9 -3 6 3 -4 6 5 14 19 17 15 4 33 14 41 22 9 8 22 13 29 10 8 -3 14 -1 14 4 0 6 5 10 12 10 19 0 102 42 111 57 4 7 14 13 22 13 8 0 22 8 32 19 10 10 41 33 68 50 28 18 82 62 120 99 63 61 86 86 142 161 10 13 28 35 41 50 21 24 65 90 67 101 4 15 42 87 53 98 6 7 12 18 12 23 0 6 9 29 21 52 27 55 53 137 79 244 11 48 25 91 29 97 22 27 45 323 45 581 0 253 -25 616 -44 640 -4 6 -13 46 -19 90 -27 196 -69 425 -80 440 -4 5 -16 48 -25 95 -10 47 -20 92 -23 100 -4 8 -5 19 -4 24 1 5 -2 12 -8 15 -6 4 -15 40 -22 81 -6 41 -15 80 -19 85 -4 6 -18 51 -31 100 -12 50 -26 92 -29 95 -4 3 -14 33 -24 67 -9 34 -23 75 -31 90 -8 15 -15 41 -15 57 0 16 -9 48 -19 70 -11 23 -27 65 -35 95 -9 30 -20 57 -24 60 -8 7 -52 139 -52 159 0 6 -4 12 -9 12 -5 0 -11 18 -15 40 -3 22 -17 64 -30 92 -13 29 -30 71 -37 93 -8 22 -17 42 -20 45 -4 3 -26 59 -50 125 -23 66 -49 126 -56 133 -7 7 -13 20 -13 27 0 14 -30 85 -40 95 -3 3 -14 30 -24 60 -11 30 -37 93 -60 140 -25 53 -42 105 -45 140 -5 47 -9 55 -28 58 -13 2 -24 13 -28 30 -7 28 -65 153 -75 162 -3 3 -12 21 -20 40 -7 19 -19 42 -27 51 -7 9 -10 19 -6 22 3 4 1 7 -5 7 -7 0 -12 10 -13 23 0 12 -23 63 -49 112 -27 50 -57 106 -67 125 -10 19 -21 37 -25 38 -5 2 -8 13 -8 23 0 19 -26 78 -39 89 -3 3 -13 19 -21 35 -8 17 -18 32 -21 35 -3 3 -19 25 -36 50 -17 25 -57 72 -89 104 -33 33 -58 63 -57 68 2 4 -3 5 -11 2 -7 -3 -24 6 -37 20 -13 14 -29 26 -35 26 -5 0 -19 8 -30 18 -26 23 -61 42 -76 42 -6 0 -19 7 -28 15 -9 8 -38 17 -64 20 -27 2 -54 9 -60 14 -30 24 -248 31 -1071 38 -476 3 -868 10 -871 15 -3 4 -134 8 -292 8 -706 -1 -3159 23 -3177 30 -11 5 -546 11 -1190 14 -643 3 -1406 8 -1695 11 -371 3 -537 1 -565 -7z m1385 -28 c641 -5 1721 -14 2400 -20 679 -5 1386 -12 1570 -15 442 -7 1773 -23 2633 -31 l687 -6 0 -77 0 -76 -38 -21 c-20 -12 -100 -54 -177 -94 -77 -40 -202 -106 -277 -146 l-137 -74 -428 2 -428 3 -6 60 c-3 33 -13 76 -21 95 -17 38 -83 118 -91 110 -14 -14 -157 -315 -157 -331 0 -16 8 -19 58 -19 31 1 80 9 109 19 l52 18 3 -81 3 -81 55 0 c30 0 177 4 326 8 245 8 273 7 288 -8 15 -15 16 -105 16 -1056 0 -1031 0 -1039 -20 -1059 -20 -20 -32 -21 -263 -20 l-242 1 -3 -252 c-1 -139 1 -256 5 -260 5 -4 134 -10 288 -13 519 -11 664 -18 674 -30 6 -7 -1 -132 -20 -351 -59 -693 -110 -1276 -129 -1499 -11 -129 -25 -235 -32 -243 -9 -11 -31 -13 -102 -8 -157 10 -612 34 -1131 60 -1036 52 -949 46 -958 68 -3 7 6 128 19 268 51 544 97 1039 128 1382 24 262 36 362 47 372 12 11 80 12 429 5 228 -5 446 -11 483 -13 37 -2 70 0 73 4 3 5 5 120 5 256 l0 248 -744 5 c-610 4 -747 7 -760 19 -15 12 -17 52 -17 397 0 210 -4 385 -8 388 -5 3 -18 2 -30 -1 l-22 -5 0 -377 c0 -310 -3 -381 -14 -397 -13 -18 -30 -19 -261 -22 l-248 -3 7 -53 c11 -97 45 -249 72 -323 l27 -73 212 0 c200 0 214 -1 239 -21 l26 -20 0 -988 0 -988 -21 -19 c-20 -18 -54 -19 -1144 -19 -1090 0 -1124 1 -1144 19 l-21 19 0 987 0 987 21 19 c19 17 43 19 261 24 l240 5 33 115 c18 63 50 161 70 218 20 57 35 105 32 108 -2 2 -146 5 -320 7 -173 1 -319 6 -324 10 -4 5 -10 219 -13 475 -5 434 -6 467 -22 470 -17 3 -18 -24 -18 -461 0 -420 -2 -466 -17 -478 -13 -12 -164 -15 -857 -19 l-841 -5 -3 -219 c-1 -121 1 -223 6 -228 7 -7 237 -3 914 18 l216 6 15 -24 c8 -13 26 -110 41 -228 14 -113 42 -322 62 -465 19 -143 55 -411 79 -595 25 -184 56 -414 69 -510 14 -107 20 -183 15 -197 -10 -27 13 -24 -609 -68 -1322 -93 -1517 -105 -1536 -100 -12 2 -25 13 -28 22 -7 17 -45 271 -126 848 -22 154 -69 482 -105 730 -36 247 -65 461 -65 476 0 51 3 51 423 61 215 5 398 11 405 13 10 4 12 55 10 232 l-3 228 -158 5 c-125 4 -160 8 -167 20 -6 9 -10 421 -10 1061 0 926 2 1048 15 1059 16 13 108 12 583 -7 l162 -6 0 122 c0 98 -3 121 -14 121 -8 0 -16 4 -18 10 -2 6 -204 12 -533 16 l-530 7 -267 166 -268 166 0 88 0 87 88 0 c48 0 611 -4 1252 -10z"/>
<path d="M4580 4225 l0 -385 275 0 276 0 18 43 c62 141 278 207 534 162 105 -18 315 -86 373 -120 23 -14 53 -39 66 -55 l24 -30 229 2 230 3 3 300 c1 165 0 305 -3 312 -3 10 -20 5 -62 -17 -61 -31 -159 -60 -204 -60 -15 0 -41 -3 -58 -6 -25 -5 -31 -11 -31 -33 -1 -81 -81 -166 -191 -201 -64 -21 -83 -22 -217 -17 -81 3 -165 11 -186 17 -30 9 -54 9 -95 1 -74 -15 -205 -14 -266 3 -146 39 -230 121 -271 263 -2 7 -29 25 -61 39 -67 30 -327 142 -360 155 l-23 9 0 -385z"/>
</g>
<g id="layer105" fill="#e1e7f1" stroke="none">
<path d="M1215 6638 c-22 -6 -42 -14 -45 -17 -3 -4 -29 -12 -58 -19 -29 -7 -60 -19 -69 -28 -9 -8 -22 -13 -30 -10 -8 3 -11 1 -8 -4 3 -6 -3 -10 -14 -10 -11 0 -26 -7 -35 -15 -8 -8 -20 -15 -26 -15 -14 0 -59 -30 -114 -77 -21 -18 -43 -30 -49 -26 -6 3 -7 2 -4 -4 7 -12 -30 -46 -43 -38 -5 3 -12 0 -16 -6 -5 -8 -3 -9 7 -4 8 5 3 -3 -11 -17 -35 -35 -60 -67 -60 -77 0 -5 -8 -15 -17 -22 -15 -12 -16 -12 -8 1 7 12 6 13 -6 2 -8 -7 -14 -16 -14 -20 0 -13 -68 -112 -77 -112 -4 0 -8 -5 -8 -10 0 -14 -41 -72 -57 -83 -7 -4 -13 -17 -13 -28 0 -11 -4 -18 -8 -15 -5 3 -8 -5 -8 -17 1 -15 -5 -22 -16 -21 -11 1 -14 -4 -11 -14 5 -11 3 -13 -7 -7 -8 5 -11 4 -6 -3 8 -14 -21 -85 -32 -78 -5 3 -23 -37 -42 -87 -18 -51 -41 -105 -51 -122 -9 -16 -24 -52 -32 -80 -8 -27 -23 -64 -32 -82 -9 -18 -26 -77 -39 -133 -12 -55 -25 -98 -28 -95 -3 3 -3 -6 -1 -20 3 -14 1 -25 -3 -25 -5 0 -10 -23 -12 -52 -1 -29 -6 -54 -11 -57 -9 -7 -41 -216 -41 -273 0 -20 -5 -40 -11 -43 -6 -4 -9 -34 -8 -71 1 -35 -1 -67 -4 -71 -9 -8 -9 -487 -1 -496 3 -3 7 -36 9 -74 1 -37 12 -142 24 -233 12 -91 20 -173 17 -182 -2 -10 2 -18 9 -18 14 0 31 -102 20 -120 -3 -5 -1 -10 6 -10 7 0 9 -10 7 -25 -3 -13 -2 -23 1 -21 3 3 19 -63 35 -145 16 -82 32 -149 36 -149 5 0 18 -45 30 -100 13 -55 27 -100 33 -100 5 0 7 -9 4 -20 -3 -11 -1 -20 5 -20 6 0 8 -9 5 -20 -3 -12 -1 -18 5 -14 7 5 9 -2 6 -19 -3 -16 0 -31 8 -38 8 -6 14 -16 14 -22 0 -24 43 -147 51 -147 5 0 9 -8 9 -18 0 -10 4 -22 9 -27 4 -6 14 -31 21 -57 7 -27 17 -48 22 -48 6 0 8 -7 4 -15 -3 -8 -1 -15 5 -15 6 0 10 -8 9 -17 -3 -24 10 -63 20 -63 5 0 14 -17 20 -37 13 -43 32 -86 41 -93 14 -10 39 -83 32 -93 -3 -5 -1 -7 4 -4 10 6 25 -15 28 -38 3 -25 17 -55 26 -55 8 0 25 -30 34 -60 7 -24 33 -67 45 -77 8 -6 12 -15 8 -18 -4 -4 0 -14 8 -22 8 -8 11 -19 8 -25 -4 -7 -2 -8 5 -4 7 5 13 -3 17 -23 4 -17 10 -31 15 -31 5 0 9 -7 9 -15 0 -8 9 -23 20 -32 11 -10 20 -23 20 -30 0 -7 5 -13 10 -13 6 0 10 -7 10 -15 0 -8 5 -15 11 -15 5 0 8 -4 5 -9 -3 -5 1 -12 10 -15 9 -3 14 -13 11 -20 -3 -8 1 -17 10 -20 8 -4 13 -12 10 -20 -3 -8 2 -16 14 -19 11 -3 19 -14 19 -26 0 -12 3 -21 8 -21 10 -1 44 -49 46 -68 2 -9 7 -17 12 -17 18 0 35 -17 30 -31 -3 -7 0 -16 6 -20 7 -5 8 -2 3 6 -6 9 -4 11 4 5 7 -4 10 -16 8 -27 -3 -11 -3 -17 0 -14 8 7 43 -23 43 -37 0 -5 12 -22 28 -37 55 -57 66 -71 68 -85 1 -8 27 -38 58 -67 31 -29 56 -60 56 -70 0 -10 7 -18 15 -18 9 0 20 -11 25 -25 5 -14 16 -25 24 -25 8 0 17 -8 21 -17 3 -10 26 -33 50 -52 25 -18 54 -48 66 -67 20 -32 37 -48 24 -21 -4 6 5 0 19 -15 14 -16 29 -28 34 -28 14 0 43 -36 35 -43 -3 -4 1 -7 10 -7 9 0 24 -11 33 -24 8 -14 22 -22 29 -20 8 3 20 -4 27 -15 7 -12 18 -21 25 -21 7 0 18 -9 25 -20 7 -11 32 -32 55 -47 24 -15 43 -31 43 -35 0 -4 11 -8 24 -8 16 0 27 -7 31 -19 3 -12 12 -18 20 -15 7 3 23 -4 34 -15 12 -12 25 -21 30 -21 4 0 26 -12 47 -26 21 -15 62 -35 91 -46 29 -12 50 -24 48 -28 -3 -5 3 -6 13 -3 11 2 25 -2 33 -9 8 -7 34 -20 59 -28 25 -8 47 -18 50 -22 7 -8 116 -38 143 -38 10 0 16 -4 13 -9 -3 -5 8 -8 24 -7 17 1 30 -1 30 -4 0 -4 14 -4 31 -2 20 3 29 1 26 -5 -4 -7 91 -10 268 -10 177 0 272 3 268 10 -3 6 6 8 26 5 17 -2 31 -1 31 2 0 4 11 6 25 5 14 -2 23 1 19 6 -3 5 5 9 18 9 26 0 89 21 133 44 17 9 38 16 47 16 9 0 23 6 30 13 21 20 76 40 89 31 7 -4 10 -3 6 3 -6 10 64 43 90 43 7 0 16 6 20 14 4 7 26 19 48 26 22 7 50 19 63 27 12 7 28 11 34 7 7 -4 8 -3 4 4 -4 7 7 13 29 18 19 3 35 10 35 14 0 4 23 10 50 14 34 5 48 11 44 18 -4 7 -3 8 5 4 6 -4 17 -3 24 2 7 5 36 15 65 22 28 6 52 16 52 21 0 4 7 6 15 3 8 -4 21 -2 28 4 6 5 39 16 72 23 33 7 63 16 66 21 3 4 28 9 56 10 28 2 49 6 46 11 -2 4 30 7 72 7 42 0 74 4 71 9 -11 18 262 36 539 36 278 0 574 -19 586 -37 3 -5 36 -9 73 -9 36 0 65 -3 62 -7 -2 -4 28 -8 68 -9 39 -2 72 -7 74 -13 2 -5 19 -10 38 -10 20 0 33 -3 31 -7 -3 -5 23 -9 56 -11 34 -1 64 -6 67 -11 3 -5 16 -12 30 -14 123 -25 148 -30 165 -38 41 -17 101 -29 148 -29 26 0 47 -4 47 -10 0 -5 12 -10 26 -10 14 0 23 -4 20 -9 -3 -4 6 -6 19 -3 14 2 25 0 25 -6 0 -6 9 -8 20 -5 11 3 27 0 35 -7 8 -6 19 -9 24 -6 5 4 12 2 15 -2 3 -5 34 -15 68 -22 35 -7 65 -17 68 -21 3 -4 50 -16 105 -28 55 -11 101 -25 103 -31 2 -5 8 -8 13 -5 11 8 129 -15 129 -25 0 -3 30 -12 67 -19 37 -7 72 -16 78 -20 13 -11 134 -41 163 -41 12 0 22 -4 22 -8 0 -9 18 -12 63 -12 15 0 27 -3 27 -7 0 -5 24 -9 53 -11 28 -1 54 -7 55 -12 2 -6 15 -10 28 -10 13 0 24 -3 24 -7 0 -5 21 -9 46 -10 25 -1 51 -7 58 -12 6 -5 56 -17 111 -26 55 -9 109 -20 120 -25 30 -14 73 -21 138 -21 32 0 55 -3 53 -7 -3 -4 10 -6 29 -4 18 2 36 -1 39 -7 4 -6 25 -11 47 -11 28 0 38 -4 33 -12 -4 -7 -3 -8 4 -4 14 9 255 -14 262 -24 5 -8 281 -30 372 -30 31 0 60 -5 63 -10 8 -14 652 -14 660 0 3 6 34 10 68 10 99 0 340 21 362 31 11 6 57 11 102 12 44 1 79 5 77 8 -2 4 29 10 69 14 39 3 74 11 77 15 3 5 44 12 90 16 47 3 99 12 115 19 17 7 53 18 80 25 28 6 64 18 82 27 18 8 37 11 44 7 7 -4 9 -3 6 3 -4 6 5 14 19 17 15 4 33 14 41 22 9 8 22 13 29 10 8 -3 14 -1 14 4 0 6 5 10 12 10 19 0 102 42 111 57 4 7 14 13 22 13 8 0 22 8 32 19 10 10 41 33 68 50 28 18 82 62 120 99 63 61 86 86 142 161 10 13 28 35 41 50 21 24 65 90 67 101 4 15 42 87 53 98 6 7 12 18 12 23 0 6 9 29 21 52 27 55 53 137 79 244 11 48 25 91 29 97 22 27 45 323 45 581 0 253 -25 616 -44 640 -4 6 -13 46 -19 90 -27 197 -69 425 -80 440 -4 5 -16 51 -26 100 -10 50 -23 93 -28 96 -5 4 -6 12 -2 19 4 7 3 15 -3 19 -6 4 -16 40 -23 81 -6 41 -15 80 -19 85 -4 6 -18 51 -31 100 -12 50 -26 92 -29 95 -4 3 -14 33 -24 67 -9 34 -23 75 -31 90 -8 15 -15 41 -15 57 0 16 -9 48 -19 70 -11 23 -27 65 -35 95 -9 30 -20 57 -24 60 -8 7 -52 139 -52 159 0 6 -4 12 -9 12 -5 0 -11 18 -15 40 -3 22 -17 64 -30 92 -13 29 -30 71 -37 93 -8 22 -17 42 -20 45 -4 3 -26 59 -50 125 -23 66 -49 126 -56 133 -7 7 -13 20 -13 27 0 14 -30 85 -40 95 -3 3 -14 30 -24 60 -11 30 -37 93 -60 140 -25 53 -42 105 -45 140 -5 47 -9 55 -28 58 -17 2 -24 12 -29 38 -3 19 -9 34 -13 34 -3 0 -17 27 -30 60 -13 33 -27 60 -31 60 -4 0 -13 18 -20 40 -7 22 -19 45 -27 51 -7 6 -10 15 -7 20 3 5 0 9 -5 9 -6 0 -11 10 -12 23 0 12 -23 63 -49 112 -27 50 -57 106 -67 125 -10 19 -21 37 -25 38 -5 2 -8 13 -8 23 0 19 -26 78 -39 89 -3 3 -13 19 -21 35 -8 17 -18 32 -21 35 -3 3 -19 25 -36 50 -17 25 -57 72 -89 104 -33 33 -58 63 -57 68 2 4 -3 5 -11 2 -7 -3 -24 6 -37 20 -13 14 -29 26 -35 26 -5 0 -19 8 -30 18 -26 23 -61 42 -76 42 -6 0 -19 7 -28 15 -9 8 -38 17 -64 20 -27 2 -54 9 -60 14 -30 24 -248 31 -1071 38 -476 3 -868 10 -871 15 -3 4 -134 8 -292 8 -706 -1 -3159 23 -3177 30 -11 5 -546 11 -1190 14 -643 3 -1406 8 -1695 11 -371 3 -537 1 -565 -7z m1385 -28 c641 -5 1721 -14 2400 -20 679 -5 1386 -12 1570 -15 442 -7 1773 -23 2633 -31 l687 -6 0 -77 0 -76 -38 -21 c-20 -12 -100 -54 -177 -94 -77 -40 -202 -106 -277 -147 l-137 -73 -430 0 -429 1 -27 -26 c-24 -25 -26 -32 -23 -103 l3 -77 55 0 c30 0 177 4 326 8 245 8 273 7 288 -8 15 -15 16 -105 16 -1056 0 -1031 0 -1039 -20 -1059 -20 -20 -32 -21 -263 -20 l-242 1 -3 -252 c-1 -139 1 -256 5 -260 5 -4 134 -10 288 -13 519 -11 664 -18 674 -30 6 -7 -1 -132 -20 -351 -59 -693 -110 -1276 -129 -1499 -11 -129 -25 -235 -32 -243 -9 -11 -31 -13 -102 -8 -157 10 -612 34 -1131 60 -1036 52 -949 46 -958 68 -3 7 6 128 19 268 51 544 97 1039 128 1382 24 262 36 362 47 372 12 11 80 12 429 5 228 -5 446 -11 483 -13 37 -2 70 0 73 4 3 5 5 120 5 256 l0 248 -744 5 c-610 4 -747 7 -760 19 -15 12 -17 52 -17 397 0 210 -4 385 -8 388 -5 3 -18 2 -30 -1 l-22 -5 0 -377 c0 -310 -3 -381 -14 -397 -13 -18 -30 -19 -261 -22 l-248 -3 7 -53 c11 -97 45 -249 72 -323 l27 -73 212 0 c200 0 214 -1 239 -21 l26 -20 0 -988 0 -988 -21 -19 c-20 -18 -54 -19 -1144 -19 -1090 0 -1124 1 -1144 19 l-21 19 0 987 0 987 21 19 c19 17 43 19 261 24 l240 5 33 115 c18 63 50 161 70 218 20 57 35 105 32 108 -2 2 -146 5 -320 7 -173 1 -319 6 -324 10 -4 5 -10 219 -13 475 -5 434 -6 467 -22 470 -17 3 -18 -24 -18 -461 0 -420 -2 -466 -17 -478 -13 -12 -164 -15 -857 -19 l-841 -5 -3 -219 c-1 -121 1 -223 6 -228 7 -7 237 -3 914 18 l216 6 15 -24 c8 -13 26 -110 41 -228 14 -113 42 -322 62 -465 19 -143 55 -411 79 -595 25 -184 56 -414 69 -510 14 -107 20 -183 15 -197 -10 -27 13 -24 -609 -68 -1322 -93 -1517 -105 -1536 -100 -12 2 -25 13 -28 22 -7 17 -45 271 -126 848 -22 154 -69 482 -105 730 -36 247 -65 461 -65 476 0 51 3 51 423 61 215 5 398 11 405 13 10 4 12 55 10 232 l-3 228 -158 5 c-125 4 -160 8 -167 20 -6 9 -10 421 -10 1061 0 926 2 1048 15 1059 16 13 108 12 583 -7 l162 -6 0 122 c0 98 -3 121 -14 121 -8 0 -16 4 -18 10 -2 6 -204 12 -533 16 l-530 7 -267 166 -268 166 0 88 0 87 88 0 c48 0 611 -4 1252 -10z"/>
<path d="M3472 6076 c-21 -23 -22 -32 -20 -138 l3 -113 144 -3 c134 -2 143 -1 136 15 -14 36 -73 199 -81 226 -9 28 -12 29 -84 33 -69 4 -77 2 -98 -20z"/>
<path d="M2275 5642 c-3 -3 -5 -410 -5 -904 l0 -898 1013 2 1012 3 0 424 0 424 -65 22 c-132 45 -200 96 -200 151 0 36 -28 74 -55 74 -16 0 -16 1 -40 130 -9 47 -29 112 -45 146 -35 74 -50 153 -50 254 0 43 -5 91 -11 107 l-10 31 -132 6 c-73 3 -377 10 -677 16 -300 6 -587 12 -637 14 -51 2 -95 1 -98 -2z m1194 -1228 c45 -14 -46 -17 -462 -16 -487 2 -690 9 -681 23 5 9 1116 2 1143 -7z m6 -155 c5 -6 4 -9 -5 -9 -8 0 -229 0 -490 0 -494 0 -660 6 -660 23 0 13 1141 0 1155 -14z m-312 -136 c175 -3 317 -10 317 -15 0 -4 -112 -8 -248 -8 -390 0 -912 12 -912 22 0 10 406 11 843 1z"/>
<path d="M8350 5635 c-267 -7 -508 -13 -537 -14 l-52 -1 -52 -92 c-29 -51 -90 -167 -136 -258 -69 -136 -87 -182 -103 -262 -11 -53 -20 -107 -20 -121 0 -29 -98 -125 -221 -217 -92 -69 -106 -75 -244 -103 l-110 -23 -3 -352 -2 -352 1012 2 1013 3 0 900 0 900 -30 1 c-16 1 -248 -4 -515 -11z"/>
<path d="M4580 4225 l0 -385 275 0 276 0 18 43 c10 23 28 51 40 61 19 17 21 30 21 118 0 71 3 98 13 98 6 1 -9 12 -34 25 -78 40 -135 118 -165 222 -2 7 -29 25 -61 39 -67 30 -327 142 -360 155 l-23 9 0 -385z"/>
<path d="M6560 4448 c-54 -32 -134 -57 -223 -68 -45 -5 -83 -10 -84 -10 -2 0 -3 -12 -3 -27 -1 -67 -73 -161 -142 -185 -15 -5 -26 -13 -24 -17 5 -7 -31 -192 -39 -199 -2 -3 13 -17 35 -33 21 -16 44 -38 50 -49 11 -20 18 -20 243 -18 l232 3 3 304 c1 168 -1 308 -6 313 -4 4 -23 -2 -42 -14z"/>
</g>


</svg>